<svg width="20" height="22" viewBox="0 0 20 22" fill="none" xmlns="http://www.w3.org/2000/svg">
<path d="M12 19C12 20.1046 11.1046 21 10 21C8.89543 21 8 20.1046 8 19M12 19C12 17.8954 11.1046 17 10 17M12 19H19M8 19C8 17.8954 8.89543 17 10 17M8 19H1M10 17V13M19 4C19 5.65685 14.9706 7 10 7C5.02944 7 1 5.65685 1 4M19 4C19 2.34315 14.9706 1 10 1C5.02944 1 1 2.34315 1 4M19 4V10C19 11.66 15 13 10 13M1 4V10C1 11.66 5 13 10 13" stroke="#53698A" stroke-width="2" stroke-linecap="round" stroke-linejoin="round"/>
</svg>
