<svg width="23" height="8" viewBox="0 0 23 8" fill="none" xmlns="http://www.w3.org/2000/svg">
<path d="M2.26918 8L0.18821 0.727273H1.8679L3.07173 5.78054H3.1321L4.46023 0.727273H5.89844L7.22301 5.79119H7.28693L8.49077 0.727273H10.1705L8.08949 8H6.59091L5.20597 3.24503H5.14915L3.76776 8H2.26918ZM12.7311 0.727273V8H11.1934V0.727273H12.7311ZM14.1962 8V0.727273H15.7338V3.93395H15.8297L18.4469 0.727273H20.2899L17.5911 3.98366L20.3219 8H18.4824L16.4902 5.00994L15.7338 5.93324V8H14.1962ZM22.8283 0.727273V8H21.2907V0.727273H22.8283Z" fill="#306BFF"/>
</svg>
