<svg width="22" height="17" viewBox="0 0 22 17" fill="none" xmlns="http://www.w3.org/2000/svg">
<path d="M3.43226 3.15156C3.43226 3.3842 3.24317 3.57075 3.0123 3.57075C2.77923 3.57075 2.59233 3.382 2.59233 3.15156C2.59233 2.91893 2.78143 2.73238 3.0123 2.73238C3.24317 2.73018 3.43226 2.91893 3.43226 3.15156ZM0.846521 7.9623C0.846521 8.19494 0.659627 8.38588 0.42436 8.38807C0.189093 8.38588 -5.36839e-07 8.19713 0.00219822 7.9623C0.00219822 7.72967 0.191292 7.54092 0.42436 7.54092C0.657428 7.54092 0.846521 7.72967 0.846521 7.9623ZM0.846521 9.34715C0.846521 9.57978 0.65523 9.76853 0.422161 9.76853C0.189093 9.76853 0 9.57759 0 9.34495C0 9.11232 0.191292 8.92357 0.42436 8.92357C0.657428 8.92577 0.846521 9.11451 0.846521 9.34715ZM1.15215 10.7276C1.15215 10.9602 0.963056 11.149 0.729987 11.149C0.496919 11.149 0.307826 10.9602 0.307826 10.7276C0.307826 10.495 0.496919 10.3062 0.729987 10.3062C0.963056 10.3062 1.15215 10.495 1.15215 10.7276ZM1.73482 11.983C1.73482 12.2156 1.54573 12.4043 1.31266 12.4043C1.07959 12.4043 0.890496 12.2156 0.890496 11.983C0.890496 11.7503 1.07959 11.5616 1.31266 11.5616C1.54573 11.5638 1.73482 11.7503 1.73482 11.983ZM11.0993 16.5808C11.0993 16.8135 10.9102 17 10.6794 17C10.4463 17 10.2594 16.8113 10.2594 16.5808C10.2594 16.3504 10.4463 16.1616 10.6794 16.1616C10.9124 16.1594 11.0993 16.3482 11.0993 16.5808ZM9.87242 16.4886C9.87242 16.7213 9.68552 16.91 9.45245 16.91C9.21939 16.91 9.03029 16.7235 9.03029 16.4908C9.03029 16.2582 9.21719 16.0695 9.45026 16.0695C9.68112 16.0673 9.87022 16.256 9.87242 16.4886ZM8.42783 16.2736C8.42783 16.5062 8.23874 16.6927 8.00787 16.6927C7.777 16.6927 7.58791 16.504 7.58791 16.2736C7.58791 16.0409 7.777 15.8544 8.00787 15.8544C8.23874 15.8544 8.42783 16.0409 8.42783 16.2736ZM7.20093 15.9378C7.20093 16.1704 7.01183 16.3592 6.77877 16.3592C6.5457 16.3592 6.3566 16.1704 6.3566 15.9378C6.3566 15.7051 6.5457 15.5164 6.77877 15.5164C7.01183 15.5186 7.20093 15.7051 7.20093 15.9378ZM5.91026 15.4154C5.91026 15.6481 5.72116 15.8368 5.4881 15.8368C5.25503 15.8368 5.06594 15.6481 5.06594 15.4154C5.06594 15.1828 5.25503 14.9941 5.4881 14.9941C5.72116 14.9963 5.91026 15.185 5.91026 15.4154ZM4.65257 14.8031C4.65257 15.0358 4.46348 15.2245 4.23041 15.2245C3.99734 15.2245 3.80825 15.0358 3.80825 14.8031C3.80825 14.5705 3.99734 14.3817 4.23041 14.3817C4.46348 14.3817 4.65257 14.5705 4.65257 14.8031ZM3.63894 14.0065C3.63894 14.2391 3.44985 14.4256 3.21678 14.4256C2.98371 14.4256 2.79682 14.2369 2.79682 14.0043C2.79682 13.7716 2.98591 13.5851 3.21898 13.5851C3.44985 13.5851 3.63894 13.7738 3.63894 14.0065ZM2.59673 13.0869C2.59673 13.3195 2.40764 13.5083 2.17457 13.5083C1.9415 13.5083 1.75241 13.3195 1.75241 13.0869C1.75241 12.8542 1.9415 12.6655 2.17457 12.6655C2.40764 12.6655 2.59673 12.8542 2.59673 13.0869ZM4.43929 2.32197C4.43929 2.55461 4.2502 2.74335 4.01713 2.74335C3.78406 2.74335 3.59497 2.55461 3.59497 2.32197C3.59497 2.08934 3.78406 1.90059 4.01713 1.90059C4.2502 1.90059 4.43929 2.08934 4.43929 2.32197ZM5.60463 1.64821C5.60463 1.88084 5.41774 2.06958 5.18247 2.06958C4.9494 2.06958 4.76251 1.88084 4.76251 1.6504C4.76251 1.41996 4.9516 1.23122 5.18247 1.23122C5.41554 1.22902 5.60463 1.41557 5.60463 1.64821ZM6.95467 1.09734C6.95467 1.32998 6.76557 1.51652 6.5347 1.51652C6.30164 1.51652 6.11474 1.32778 6.11474 1.09734C6.10155 0.864704 6.27965 0.667183 6.51272 0.654015C6.74578 0.640847 6.94367 0.818616 6.95687 1.05125C6.95687 1.06661 6.95686 1.08198 6.95467 1.09734ZM8.15299 0.75936C8.15299 0.991996 7.96389 1.18074 7.73083 1.18074C7.49776 1.18074 7.30867 0.991996 7.30867 0.75936C7.30867 0.526724 7.49776 0.337981 7.73083 0.337981C7.96389 0.340175 8.15299 0.528918 8.15299 0.75936ZM9.56679 0.513555C9.5536 0.746192 9.35571 0.923961 9.12264 0.912988C8.90716 0.902014 8.73566 0.728634 8.72247 0.513555C8.72247 0.280919 8.91156 0.0921762 9.14463 0.0921762C9.3777 0.0921762 9.56679 0.280919 9.56679 0.513555ZM12.1767 0.421378C12.1767 0.654015 11.9876 0.842757 11.7546 0.842757C11.5215 0.842757 11.3324 0.654015 11.3324 0.421378C11.3324 0.188742 11.5215 0 11.7546 0C11.9876 0.00219468 12.1767 0.190937 12.1767 0.421378ZM13.5267 0.559644C13.5267 0.79228 13.3377 0.981022 13.1046 0.981022C12.8715 0.981022 12.6824 0.79228 12.6824 0.559644C12.6824 0.327008 12.8715 0.138265 13.1046 0.138265C13.3377 0.138265 13.5267 0.327008 13.5267 0.559644ZM14.8548 0.847147C14.8548 1.07978 14.6679 1.26853 14.4348 1.26853C14.2018 1.26853 14.0127 1.08198 14.0127 0.849341C14.0127 0.616705 14.1996 0.427963 14.4326 0.427963C14.6657 0.425768 14.8548 0.614511 14.8548 0.847147ZM16.185 1.26194C16.185 1.49458 15.9982 1.68332 15.7651 1.68332C15.532 1.68332 15.3429 1.49677 15.3429 1.26414C15.3429 1.0315 15.5298 0.842757 15.7629 0.842757C15.996 0.842757 16.185 1.02931 16.185 1.26194ZM17.3328 1.83475C17.3328 2.06739 17.1437 2.25613 16.9106 2.25613C16.6776 2.25613 16.4885 2.06739 16.4885 1.83475C16.4885 1.60212 16.6776 1.41337 16.9106 1.41337C17.1437 1.41557 17.3328 1.60212 17.3328 1.83475ZM18.6103 2.56339C18.6103 2.79602 18.4212 2.98257 18.1881 2.98257C17.955 2.98257 17.7681 2.79602 17.7681 2.56339C17.7681 2.33075 17.9572 2.1442 18.1881 2.1442C18.4234 2.1442 18.6103 2.33075 18.6103 2.56339ZM19.6525 3.42151C19.6525 3.65414 19.4634 3.84289 19.2303 3.84289C18.9973 3.84289 18.8082 3.65414 18.8082 3.42151C18.8082 3.18887 18.9973 3.00013 19.2303 3.00013C19.4634 3.00013 19.6525 3.18887 19.6525 3.42151ZM20.4616 4.46179C20.4616 4.69442 20.2725 4.88316 20.0395 4.88316C19.8064 4.88316 19.6173 4.69442 19.6173 4.46179C19.6173 4.22915 19.8064 4.04041 20.0395 4.04041C20.2747 4.0426 20.4616 4.22915 20.4616 4.46179ZM21.2444 5.63375C21.2444 5.86638 21.0553 6.05513 20.8222 6.05513C20.5892 6.05513 20.4001 5.86638 20.4001 5.63375C20.4001 5.40111 20.5892 5.21237 20.8222 5.21237C21.0553 5.21456 21.2444 5.4033 21.2444 5.63375ZM21.8183 6.96153C21.8183 7.19416 21.627 7.38291 21.3939 7.38291C21.1608 7.38291 20.9717 7.19197 20.9717 6.95933C20.9717 6.7267 21.163 6.53796 21.3961 6.53796C21.6292 6.53796 21.8183 6.72889 21.8183 6.96153ZM21.9986 8.36832C21.9986 8.60096 21.8095 8.7897 21.5764 8.7897C21.3433 8.7897 21.1542 8.60096 21.1542 8.36832C21.1366 8.13568 21.3103 7.93377 21.5434 7.91621C21.7765 7.89866 21.9788 8.07204 21.9964 8.30467C22.0008 8.32443 22.0008 8.34637 21.9986 8.36832ZM21.8688 9.72683C21.8688 9.95946 21.6797 10.1482 21.4467 10.1482C21.2136 10.1482 21.0245 9.95946 21.0245 9.72683C21.0245 9.49419 21.2136 9.30545 21.4467 9.30545C21.6819 9.30545 21.8688 9.49419 21.8688 9.72683ZM21.3741 11.1314C21.3741 11.3641 21.185 11.5528 20.952 11.5528C20.7189 11.5528 20.5298 11.3641 20.5298 11.1314C20.5298 10.8988 20.7189 10.71 20.952 10.71C21.185 10.71 21.3719 10.8988 21.3741 11.1314ZM20.6947 12.3297C20.6947 12.5624 20.5056 12.7489 20.2747 12.7489C20.0417 12.7489 19.8548 12.5602 19.8548 12.3297C19.8548 12.0971 20.0439 11.9105 20.2747 11.9105C20.5078 11.9083 20.6947 12.0971 20.6947 12.3297ZM19.8372 13.3963C19.8372 13.629 19.6481 13.8177 19.415 13.8177C19.415 13.8177 19.415 13.8177 19.4128 13.8177C19.1819 13.8199 18.9929 13.6334 18.9907 13.4029C18.9907 13.4007 18.9907 13.3985 18.9907 13.3985C18.9907 13.1659 19.1776 12.9793 19.4128 12.9793C19.6459 12.9772 19.8372 13.1637 19.8372 13.3963ZM18.8192 14.2808C18.817 14.5134 18.6279 14.7 18.3948 14.7C18.1617 14.6978 17.9748 14.509 17.9748 14.2764C17.977 14.046 18.1639 13.8572 18.397 13.8572C18.6301 13.8572 18.8192 14.0482 18.8192 14.2808ZM17.6186 15.0094C17.6186 15.2421 17.4295 15.4308 17.1965 15.4308C16.9634 15.4308 16.7743 15.2421 16.7743 15.0094C16.7743 14.7768 16.9634 14.588 17.1965 14.588C17.4317 14.5902 17.6186 14.7768 17.6186 15.0094ZM15.1692 16.076C15.1692 16.3087 14.9823 16.4974 14.7493 16.4974C14.5162 16.4974 14.3271 16.3109 14.3271 16.0782C14.3271 15.8456 14.514 15.6569 14.7471 15.6569C14.7471 15.6569 14.7471 15.6569 14.7493 15.6569C14.9823 15.6569 15.1692 15.8456 15.1692 16.076ZM16.4467 15.6064C16.4467 15.839 16.2576 16.0278 16.0245 16.0278C15.7915 16.0278 15.6024 15.839 15.6024 15.6064C15.6024 15.3737 15.7915 15.185 16.0245 15.185C16.2576 15.1872 16.4467 15.3759 16.4467 15.6064ZM12.5615 16.5435C12.5615 16.7761 12.3724 16.9627 12.1393 16.9627C11.9063 16.9627 11.7194 16.7761 11.7194 16.5435C11.7194 16.3109 11.9085 16.1243 12.1393 16.1243C12.3702 16.1243 12.5615 16.3109 12.5615 16.5435ZM10.4023 0.844952C10.6354 0.844952 10.8245 0.656209 10.8245 0.423573C10.8245 0.190937 10.6354 0.0043895 10.4023 0.00219482C10.1692 0.00219482 9.98015 0.190937 9.98015 0.423573C9.98015 0.656209 10.1692 0.844952 10.4023 0.844952ZM1.5831 5.29577C1.5831 5.06313 1.39401 4.87658 1.16094 4.87439C0.927875 4.87439 0.738782 5.06313 0.738782 5.29577C0.738782 5.5284 0.927875 5.71714 1.16094 5.71714C1.39401 5.71714 1.5831 5.5284 1.5831 5.29577ZM10.9146 1.37168C5.52767 1.37168 1.16314 4.5408 1.16314 8.45611C1.16314 12.367 5.52767 15.5361 10.9146 15.5361C16.2994 15.5361 20.6639 12.367 20.6639 8.45611C20.6639 4.5386 16.2972 1.37168 10.9146 1.37168ZM9.60637 14.0152C7.92872 14.0899 5.74975 13.0276 5.54966 9.73341C5.35837 6.54893 7.69784 2.79602 11.0092 2.65337C12.0492 2.60948 12.9551 2.96501 13.2871 2.94965C13.707 2.9299 13.7818 2.73018 13.8456 2.56339L14.149 2.55022L13.8104 5.85102L13.5487 5.81371C13.4894 5.35502 13.2277 3.15376 11.1609 3.24374C8.26952 3.37103 7.03382 7.42022 7.18114 9.84753C7.31086 12.0049 8.19037 13.3371 9.90979 13.2603C11.5457 13.1878 12.4867 11.9764 13.131 11.1709L13.3926 11.3926C12.8979 12.1388 11.7172 13.9209 9.60637 14.0152ZM15.5848 7.11296C15.3781 7.14149 15.2528 7.15905 15.1648 7.44655L14.5975 9.29667C14.5624 9.41957 14.4678 9.68293 14.4678 9.79486C14.4678 9.96824 14.6503 9.9836 14.8482 9.99019V10.1065H13.2013V9.99019C13.5971 9.97702 13.6631 9.8607 13.7268 9.6566L14.0588 8.5812H12.8166L12.5571 9.41957C12.5219 9.54028 12.4691 9.67635 12.4691 9.79047C12.4691 9.96385 12.5769 9.97044 12.8517 9.99019V10.1065H11.3082V9.99019C11.5017 9.96166 11.638 9.9441 11.7282 9.6566L12.3614 7.56726C12.39 7.48606 12.4076 7.40266 12.4186 7.31707C12.4186 7.16344 12.3614 7.15466 12.0382 7.11296V6.99884H13.6873V7.11516C13.397 7.12613 13.2453 7.17222 13.1618 7.44875L12.8803 8.3749H14.1226L14.3667 7.57165C14.3667 7.57165 14.4194 7.37193 14.4194 7.31268C14.4194 7.16344 14.3711 7.15905 14.0391 7.11735V6.99884H15.587V7.11296H15.5848ZM0.650831 6.16047C0.417763 6.16047 0.228671 6.34921 0.228671 6.58185C0.228671 6.81449 0.417763 7.00323 0.650831 7.00323C0.8839 7.00323 1.07299 6.81449 1.07299 6.58185C1.07299 6.34702 0.8839 6.16047 0.650831 6.16047ZM1.98328 4.55177C2.21635 4.55177 2.40324 4.36303 2.40324 4.13259C2.40324 3.90214 2.21415 3.7134 1.98328 3.7134C1.75021 3.7134 1.56332 3.90214 1.56332 4.13259C1.56332 4.36303 1.75021 4.55177 1.98328 4.55177ZM13.5202 16.8705C13.7532 16.8705 13.9423 16.6818 13.9423 16.4491C13.9423 16.2165 13.7532 16.03 13.5202 16.0278C13.2871 16.0278 13.098 16.2165 13.098 16.4491C13.098 16.6818 13.2871 16.8705 13.5202 16.8705Z" fill="#53698A"/>
</svg>
