<svg width="17" height="17" viewBox="0 0 17 17" fill="none" xmlns="http://www.w3.org/2000/svg">
<path d="M3.93907 7.80813C3.89346 7.51263 3.8698 7.20989 3.8698 6.90164C3.8698 3.64225 6.51551 1 9.77917 1C13.0428 1 15.6885 3.64225 15.6885 6.90164C15.6885 7.63792 15.5535 8.34271 15.3069 8.99267C15.2557 9.12765 15.2301 9.19515 15.2184 9.24784C15.2069 9.30005 15.2025 9.33678 15.2012 9.39025C15.1999 9.44421 15.2072 9.50365 15.2218 9.62253L15.5172 12.035C15.5492 12.2961 15.5652 12.4267 15.522 12.5216C15.4841 12.6048 15.4169 12.6709 15.3333 12.707C15.2379 12.7483 15.1084 12.7292 14.8494 12.691L12.5119 12.3466C12.3899 12.3286 12.3288 12.3196 12.2732 12.3199C12.2183 12.3202 12.1802 12.3243 12.1264 12.3357C12.072 12.3472 12.0025 12.3733 11.8636 12.4257C11.2154 12.6697 10.5129 12.8033 9.77917 12.8033C9.47229 12.8033 9.17086 12.7799 8.87659 12.7349M5.06715 15.7541C7.24292 15.7541 9.00673 13.9375 9.00673 11.6967C9.00673 9.45589 7.24292 7.63934 5.06715 7.63934C2.89138 7.63934 1.12757 9.45589 1.12757 11.6967C1.12757 12.1472 1.19883 12.5805 1.33039 12.9853C1.386 13.1564 1.41381 13.242 1.42294 13.3004C1.43246 13.3615 1.43413 13.3957 1.43059 13.4574C1.42719 13.5165 1.41248 13.5833 1.38308 13.7168L0.934448 15.7541L3.13217 15.4524C3.25212 15.4359 3.3121 15.4277 3.36448 15.428C3.41963 15.4284 3.4489 15.4314 3.50298 15.4422C3.55435 15.4525 3.63071 15.4796 3.78343 15.5338C4.18581 15.6766 4.61769 15.7541 5.06715 15.7541Z" stroke="#7C96BD" stroke-linecap="round" stroke-linejoin="round"/>
</svg>
