<svg width="84" height="84" viewBox="0 0 84 84" fill="none" xmlns="http://www.w3.org/2000/svg">
<g opacity="0.5" clip-path="url(#clip0_186_22212)">
<path d="M76.4856 66.0513C76.3961 66.141 76.3067 66.3205 76.2172 66.4103C75.0543 68.0257 73.8019 69.5513 72.46 70.9872C72.0127 71.4359 71.7444 71.5256 71.2971 71.0769C68.7028 68.4744 66.0191 65.9615 63.3354 63.359C62.9776 63 62.8882 62.8205 63.3354 62.3718C64.3195 61.3846 65.214 60.3974 65.9297 59.2308C66.1981 58.7821 66.4664 58.7821 66.8242 59.0513C69.8658 61.2051 72.9073 63.2692 76.0383 65.3333C76.2172 65.6026 76.4856 65.6923 76.4856 66.0513Z" fill="white"/>
<path d="M76.2172 17.5897C76.2172 17.859 75.9489 17.9487 75.7699 18.1282C72.7284 20.3718 69.6869 22.5256 66.6453 24.7692C66.2875 25.0384 66.0191 25.0384 65.7508 24.5897C64.9457 23.4231 64.0511 22.3461 63.0671 21.359C62.7092 21 62.7987 20.8205 63.0671 20.4615C65.7508 17.7692 68.345 15.0769 71.0287 12.3846C71.2971 12.1154 71.476 12.0256 71.8338 12.3846C73.3546 13.9102 74.6965 15.5256 75.9489 17.3205C76.1278 17.4102 76.2172 17.5 76.2172 17.5897Z" fill="white"/>
<path d="M82.6581 52.5898C82.6581 52.6795 82.5687 52.7693 82.5687 52.9488C82.0319 54.9231 81.4057 56.8078 80.6006 58.6026C80.4217 59.0513 80.2428 59.2308 79.7061 59.0513C76.3067 57.5257 72.9073 56.0898 69.508 54.6539C68.9712 54.4744 68.8818 54.2052 69.1501 53.6667C69.6869 52.4103 70.1342 51.1539 70.492 49.8077C70.5815 49.359 70.7604 49.2693 71.2077 49.359C74.8754 50.2565 78.4537 51.1539 82.1214 52.0513C82.3898 52.1411 82.7476 52.0513 82.6581 52.5898Z" fill="white"/>
<path d="M21.4696 63.2693C21.2907 63.4488 21.2013 63.6283 21.0224 63.718C18.5176 66.3206 16.0128 68.9231 13.508 71.5257C12.9712 72.0642 12.7029 72.1539 12.0767 71.5257C10.7348 70.0898 9.48243 68.6539 8.31949 67.1283C7.96166 66.6795 8.05112 66.5001 8.4984 66.1411C11.5399 63.9872 14.492 61.7436 17.4441 59.5898C17.7125 59.4103 17.9808 59.1411 18.2492 59.5898C19.1438 60.7565 20.0383 61.9231 21.1118 62.9103C21.2907 63.0001 21.3802 63.1795 21.4696 63.2693Z" fill="white"/>
<path d="M70.8498 34.0129C70.492 34.1026 70.4025 33.8334 70.3131 33.5642C69.9552 32.218 69.4185 30.9616 68.7923 29.7052C68.5239 29.2565 68.7923 28.9872 69.1501 28.8077C72.46 27.1924 75.8594 25.577 79.1693 23.9616C79.6166 23.6924 79.885 23.7821 80.0639 24.3206C80.869 26.2052 81.5846 28.0898 82.2108 30.0642C82.3898 30.6026 82.2108 30.7821 81.6741 30.9616C78.1853 31.9488 74.607 33.0257 71.1182 34.0129C71.0287 33.9231 70.9393 33.9231 70.8498 34.0129Z" fill="white"/>
<path d="M58.7731 66.3206C59.0415 66.3206 59.131 66.5898 59.3099 66.7693C61.4568 69.8206 63.5144 72.8718 65.6613 75.9231C65.9297 76.3718 65.9297 76.5513 65.4824 76.8206C63.7827 77.8975 61.9936 78.9744 60.2044 79.8718C59.7572 80.1411 59.4888 80.0513 59.2204 79.5129C57.6997 76.1026 56.0894 72.7821 54.4792 69.3718C54.3003 69.0129 54.1214 68.7436 54.6581 68.5641C56 67.9359 57.2524 67.218 58.5048 66.4103C58.5048 66.4103 58.6837 66.4103 58.7731 66.3206Z" fill="white"/>
<path d="M29.3418 68.9231C29.2524 69.1026 29.1629 69.2821 29.1629 69.3718C27.6422 72.6923 26.0319 75.9231 24.5112 79.2436C24.1533 79.9616 23.885 79.9616 23.2588 79.6026C21.5591 78.7052 19.8594 77.718 18.2492 76.6411C17.8019 76.3718 17.7125 76.1026 18.0703 75.6539C20.2172 72.6026 22.3642 69.5513 24.4217 66.5C24.6901 66.1411 24.869 65.9616 25.3163 66.3206C26.4792 67.1282 27.6422 67.8462 28.8946 68.4744C29.1629 68.5641 29.3418 68.6539 29.3418 68.9231Z" fill="white"/>
<path d="M45.7124 83.9102C45.1757 84.0897 44.9968 83.641 44.9968 83.1025C44.7284 79.423 44.4601 75.7435 44.1917 72.0641C44.1917 71.6153 44.2811 71.4358 44.7284 71.4358C46.1597 71.3461 47.5016 71.0769 48.8434 70.8076C49.2907 70.7179 49.4696 70.8076 49.5591 71.2564C50.4537 74.9358 51.3482 78.5256 52.2428 82.2051C52.4217 82.8333 52.1533 82.923 51.7061 83.0128C49.738 83.3717 47.77 83.641 45.7124 83.9102Z" fill="white"/>
<path d="M39.0927 72.1538C38.7348 75.8333 38.377 79.5128 38.0192 83.282C38.0192 83.7307 37.8403 83.9102 37.3035 83.8205C35.246 83.5512 33.278 83.1923 31.3099 82.7435C30.6837 82.5641 30.6837 82.2948 30.7732 81.7564C31.7572 78.2564 32.7412 74.7564 33.6358 71.2564C33.7253 70.8076 33.9042 70.5384 34.5304 70.6282C35.7828 70.8974 37.1246 71.1666 38.377 71.4359C39.0032 71.4359 39.2716 71.6153 39.0927 72.1538Z" fill="white"/>
<path d="M1.2524 31.6795C1.87859 29.3462 2.50479 27.3718 3.39936 25.3975C3.57827 25.0385 3.66773 25.0385 4.02556 25.1282C7.51438 26.6539 11.0032 28.1795 14.5815 29.6154C15.0288 29.7949 15.0288 30.0641 14.8498 30.4231C14.3131 31.6795 13.8658 32.9359 13.508 34.2821C13.4185 34.7308 13.1502 34.8205 12.7029 34.7308C9.1246 33.8334 5.54632 33.0257 1.96805 32.1282C1.61022 32.0385 1.07348 32.0385 1.2524 31.6795Z" fill="white"/>
<path d="M13.2396 50.1666C13.5974 50.1666 13.6869 50.3461 13.7764 50.6153C14.2236 51.9615 14.6709 53.3077 15.2971 54.4743C15.5655 54.923 15.2971 55.1025 14.9393 55.282C11.5399 56.8974 8.23004 58.6025 4.83067 60.2179C4.47285 60.3974 4.20448 60.3974 4.02556 59.9487C3.13099 58.0641 2.41534 56.0897 1.78914 54.1153C1.61023 53.6666 1.78914 53.4871 2.23643 53.3077C5.8147 52.2307 9.39298 51.1538 13.0607 50.1666C13.0607 50.1666 13.1502 50.1666 13.2396 50.1666Z" fill="white"/>
<path d="M77.738 44.4231C75.9489 44.3333 74.0703 44.1539 72.2812 44.1539C71.5655 44.1539 71.3866 43.8846 71.476 43.1667C71.476 41.9103 71.476 40.7436 71.3866 39.4872C71.2971 38.859 71.476 38.5898 72.1022 38.5898C75.0543 38.3205 78.0958 37.9616 81.0479 37.6026C81.2268 37.6026 81.4952 37.6026 81.6741 37.5128C83.8211 37.2436 83.8211 37.2436 83.9106 39.3077C84 40.8333 83.9106 42.2692 83.9106 43.7949C83.9106 44.4231 83.7316 44.6923 83.016 44.6026C81.3163 44.6026 79.5272 44.6026 77.738 44.4231Z" fill="white"/>
<path d="M21.0224 21.0001C20.8435 21.1795 20.754 21.2693 20.6645 21.4488C19.77 22.5257 18.9649 23.5129 18.0703 24.5898C17.7125 25.0385 17.5336 24.9488 17.0863 24.6795C14.0447 22.5257 11.0927 20.4616 8.05113 18.3975C7.51439 18.0385 7.51439 17.7693 7.87222 17.3206C9.03516 15.7052 10.2876 14.1795 11.6294 12.7436C12.0767 12.2949 12.2556 12.2949 12.7029 12.7436C14.6709 14.718 16.639 16.6026 18.607 18.577C19.2332 19.2052 19.9489 19.8334 20.5751 20.5513C20.754 20.7308 20.8435 20.8206 21.0224 21.0001Z" fill="white"/>
<path d="M66.2875 7.6282C66.1981 7.80768 66.1086 7.98717 66.0191 8.16666C63.8722 11.2179 61.8147 14.2692 59.6677 17.3205C59.3993 17.7692 59.131 17.859 58.6837 17.5C57.6102 16.782 56.4473 16.0641 55.2843 15.4359C54.837 15.1667 54.7476 14.9872 55.0159 14.5385C56.6262 11.1282 58.2364 7.71794 59.7572 4.30768C59.9361 3.94871 60.115 3.76922 60.5623 3.94871C62.4409 4.93589 64.23 5.92307 65.9297 7.08974C66.0191 7.35897 66.1086 7.53845 66.2875 7.6282Z" fill="white"/>
<path d="M29.6997 14.718C29.7891 15.077 29.5208 15.1667 29.3419 15.2564C28.0895 15.8846 26.8371 16.5129 25.6741 17.3205C25.2268 17.5898 25.0479 17.4103 24.869 17.0513C22.722 14 20.5751 10.859 18.4281 7.80773C18.1597 7.44875 18.1597 7.26927 18.607 7.00003C20.3067 5.83337 22.0958 4.84619 23.9744 3.94875C24.4217 3.76927 24.6006 3.85901 24.7796 4.21798C26.3898 7.62824 28 11.0385 29.6102 14.359C29.6102 14.5385 29.6102 14.6282 29.6997 14.718Z" fill="white"/>
<path d="M6.17252 39.8461C7.96166 39.9358 9.84026 40.0256 11.6294 40.1153C12.345 40.1153 12.524 40.3846 12.524 41.1025C12.524 42.2692 12.524 43.5256 12.6134 44.782C12.7029 45.4999 12.4345 45.5897 11.8083 45.6794C8.4984 46.0384 5.1885 46.3974 1.96805 46.7564C0.268371 46.9358 0.178914 46.9358 0.0894569 45.141C0 43.5256 0.0894569 41.9102 0 40.3846C0 39.6666 0.268371 39.4871 0.894569 39.5769C2.68371 39.6666 4.47284 39.7564 6.17252 39.8461Z" fill="white"/>
<path d="M39.361 5.56406C39.5399 8.16663 39.7189 9.9615 39.8978 11.8461C39.8978 12.2948 39.8083 12.4743 39.361 12.5641C38.0192 12.6538 36.7668 12.8333 35.4249 13.1923C34.8882 13.282 34.7093 13.1923 34.6198 12.6538C33.7252 8.97432 32.8307 5.38457 31.9361 1.70509C31.8467 1.25637 31.9361 1.07688 32.3834 0.987139C34.262 0.538421 36.23 0.26919 38.1981 0.0897029C38.9137 -4.06876e-05 39.0927 0.26919 39.0927 0.897395C39.1821 2.69227 39.361 4.48714 39.361 5.56406Z" fill="white"/>
<path d="M45.0863 11.4872C45.4441 7.80772 45.8019 4.21797 46.1597 0.628228C46.2492 0.0897668 46.3387 2.32197e-05 46.8754 0.0897668C48.754 0.358998 50.6326 0.717972 52.5112 1.16669C53.1374 1.34618 53.3163 1.52566 53.1374 2.24361C52.1534 5.74361 51.1693 9.15387 50.2748 12.6539C50.0958 13.2821 49.9169 13.4616 49.2907 13.2821C48.2172 13.0128 47.2332 12.8334 46.1597 12.6539C45.3546 12.5641 44.8179 12.2949 45.0863 11.4872Z" fill="white"/>
<path d="M58.8626 46.3975C60.7412 46.8462 62.7092 47.3846 64.7668 47.8334C65.214 47.9231 65.3035 48.1923 65.1246 48.6411V48.7308C64.7668 49.8975 64.6773 51.3334 63.7827 51.8718C62.8882 52.4103 61.8147 51.2436 60.7412 50.8846C59.6677 50.5257 58.6837 49.9872 57.6102 49.5385C57.1629 49.359 56.984 49.1795 57.2524 48.6411C57.5207 48.0128 57.7891 47.3846 57.968 46.7564C58.1469 46.3077 58.3259 46.218 58.8626 46.3975Z" fill="white"/>
<path d="M65.1246 35.1795C65.2141 35.6282 64.9457 35.6282 64.6773 35.7179C62.6198 36.3461 60.6518 36.8846 58.5942 37.5128C58.5048 37.5128 58.4153 37.6025 58.4153 37.6025C57.5208 36.9743 57.6997 35.8974 57.2524 35.0897C56.984 34.7307 57.2524 34.5513 57.6102 34.3718C59.4888 33.4743 61.278 32.5769 63.1565 31.6795C63.3355 31.5897 63.6038 31.3205 63.7827 31.6795C64.4089 32.8461 64.7668 34.0128 65.1246 35.1795Z" fill="white"/>
<path d="M58.9521 24.859C59.131 25.0385 59.3099 25.1282 59.4888 25.3077C60.2045 26.2052 61.3674 27.0129 61.5463 28C61.7252 29.1667 60.115 29.4359 59.2204 30.1539C58.3259 30.9616 57.3418 31.5 56.3578 32.218C55.9105 32.577 55.7316 32.4872 55.4632 32.0385C55.016 31.3205 53.9425 30.7821 54.0319 30.0641C54.1214 29.3462 55.1054 28.8077 55.7316 28.1795C56.6262 27.2821 57.5208 26.2949 58.4153 25.3975C58.5942 25.218 58.7732 25.0385 58.9521 24.859Z" fill="white"/>
<path d="M61.7252 55.9103C61.4569 56.2693 61.1885 56.6283 60.9201 56.9872C59.131 59.3206 59.131 59.3206 57.0735 57.2565C56.0894 56.2693 55.1054 55.3719 54.1214 54.4744C53.7636 54.1154 53.7636 53.936 54.1214 53.4872C55.8211 51.5129 55.8211 51.5129 57.968 52.9488C59.0415 53.6667 60.115 54.4744 61.2779 55.1924C61.3674 55.3718 61.6358 55.5513 61.7252 55.9103Z" fill="white"/>
<path d="M30.3259 54.1153C30.2364 54.2051 30.147 54.3846 29.9681 54.4743C28.5368 55.9102 27.1054 57.3461 25.7636 58.8717C25.4058 59.2307 25.1374 59.3205 24.7796 58.8717C23.9745 58.0641 22.8115 57.2564 22.7221 56.2692C22.6326 55.1923 24.2428 54.8333 25.0479 54.1153C25.9425 53.3974 26.8371 52.7692 27.8211 52.0512C28 51.9615 28.1789 51.782 28.3578 51.6923C28.3578 51.6923 30.3259 53.9359 30.3259 54.1153Z" fill="white"/>
<path d="M62.5303 43.5257C61.4568 43.436 60.2939 43.6154 59.2204 43.2565C57.8786 42.8077 58.9521 41.5513 58.5942 40.7436C58.4153 40.2949 58.5942 40.0257 59.2204 40.0257C61.1885 39.8462 63.1565 39.6667 65.0351 39.3975C65.6613 39.3077 66.0191 39.3975 65.9297 40.1154C65.9297 41.0129 66.0191 42.0001 66.0191 42.8975C66.0191 43.5257 65.8402 43.7949 65.1246 43.7052C64.3195 43.6154 63.4249 43.6154 62.5303 43.5257Z" fill="white"/>
<path d="M55.6422 61.5641C55.7316 61.923 55.3738 62.0128 55.1949 62.1025C54.3003 62.641 53.4057 63.0897 52.5112 63.6282C52.0639 63.8974 51.885 63.8076 51.6166 63.3589C50.722 61.4743 49.9169 59.5897 49.0224 57.7051C48.8434 57.2564 48.8434 57.0769 49.2907 56.8974C49.4696 56.8076 49.6486 56.7179 49.738 56.6282C50.3642 56.3589 50.9904 55.5512 51.5272 55.7307C52.0639 55.9999 52.4217 56.8076 52.7795 57.4358C53.5847 58.6025 54.3898 59.7692 55.1949 60.9358C55.3738 61.2948 55.5527 61.4743 55.6422 61.5641Z" fill="white"/>
<path d="M20.3067 32.1282C20.4856 32.2179 20.6645 32.3077 20.9329 32.3974C22.6326 33.1154 24.3323 33.9231 26.0319 34.5513C26.837 34.8205 26.837 35.1795 26.5687 35.8974C25.7636 37.9615 25.7636 37.9615 23.6166 37.4231C22.1853 37.0641 20.754 36.7051 19.3227 36.4359C18.8754 36.3462 18.607 36.1667 18.7859 35.6282C19.1438 34.5513 19.5016 33.5641 19.8594 32.4872C19.8594 32.2179 19.9489 32.0385 20.3067 32.1282Z" fill="white"/>
<path d="M31.5783 63.718C30.4153 63.1795 29.2524 62.4616 28.1789 61.6539C27.9105 61.4744 28.2684 61.2052 28.3578 61.0257C29.5208 59.3205 30.6837 57.7052 31.8466 56C32.115 55.6411 32.3834 55.4616 32.7412 55.8205C32.8307 55.9103 33.0096 56 33.099 56.0898C34.8882 57.2564 34.8882 57.2564 33.9936 59.2308C33.3674 60.577 32.7412 61.8334 32.115 63.1795C31.9361 63.4488 31.9361 63.718 31.5783 63.718Z" fill="white"/>
<path d="M43.2077 59.5898C43.0288 58.8718 43.2971 58.5129 44.0128 58.5129C44.8179 58.6026 45.7125 57.7949 46.2492 58.3334C46.6965 58.7821 46.6965 59.7693 46.8754 60.4872C47.2332 61.8334 47.5016 63.1795 47.8594 64.5257C48.0383 65.0642 47.9489 65.4231 47.3227 65.5129C46.3387 65.6924 45.2652 65.8718 44.2811 66.0513C43.7444 66.1411 43.655 65.8718 43.5655 65.4231C43.5655 63.4488 43.3866 61.5642 43.2077 59.5898Z" fill="white"/>
<path d="M39.0926 65.9615C37.8402 65.6923 36.9457 65.5128 36.0511 65.3333C35.5144 65.2436 35.3354 64.9743 35.5144 64.4359C36.0511 62.5513 36.5878 60.6666 37.0351 58.782C37.214 58.2436 37.393 57.9743 38.0192 58.2436C38.377 58.3333 38.7348 58.423 39.0926 58.5128C40.5239 58.782 40.5239 58.782 40.345 60.1282C40.1661 61.8333 39.8977 63.4487 39.8083 65.1538C39.7188 65.8718 39.5399 66.2307 39.0926 65.9615Z" fill="white"/>
<path d="M17.8914 42.5384C17.8019 40.4743 17.8019 40.4743 19.5911 40.5641C21.2907 40.6538 22.901 40.7435 24.6006 40.8333C25.2268 40.8333 25.4057 41.1025 25.3163 41.641C25.1374 42.4487 25.853 43.4359 25.1374 43.9743C24.6006 44.423 23.6166 44.2436 22.901 44.3333C21.6486 44.5128 20.3067 44.6025 19.0543 44.782C18.3387 44.8718 17.9808 44.782 17.9808 43.9743C17.9808 43.3461 17.8914 42.8077 17.8914 42.5384Z" fill="white"/>
<path d="M25.6741 46.4872C26.3003 47.1154 26.3003 48.1026 26.7476 48.8205C26.9265 49.1795 26.9265 49.4487 26.5687 49.6282C24.6006 50.5256 22.722 51.5128 20.8434 52.5C20.3962 52.6795 20.2172 52.4103 20.1278 52.141C19.77 51.1538 19.4121 50.2564 19.0543 49.2692C18.9648 49 18.8754 48.641 19.3227 48.5513C21.3802 47.7436 23.4377 47.1154 25.6741 46.4872Z" fill="white"/>
<path d="M51.885 28.4488C50.9904 27.9103 50.1853 27.3718 49.2907 26.8334C49.2907 26.8334 49.3802 26.4744 49.4696 26.2949C50.2747 24.5001 51.1693 22.7052 51.9744 20.8206C52.2428 20.2821 52.5112 20.1924 53.0479 20.4616C53.853 21.0001 54.7476 21.5385 55.6421 21.9872C56 22.2565 56.0894 22.4359 55.8211 22.7949C54.5687 24.5001 53.4057 26.2949 52.2428 28.0001C52.1533 28.1795 51.9744 28.2693 51.885 28.4488Z" fill="white"/>
<path d="M30.147 30.0642C29.7892 30.5129 29.3419 30.8718 29.0735 31.4103C28.5368 32.3975 28 32.4872 27.1054 31.7693C25.6741 30.6924 24.2428 29.7052 22.7221 28.718C22.2748 28.4488 22.0959 28.1795 22.5431 27.7308C23.1693 27.0129 23.7955 26.2052 24.4217 25.3975C24.6901 25.0385 24.9585 24.9488 25.3163 25.3077C26.7476 26.7436 28.2684 28.1795 29.6997 29.5257C29.8786 29.7052 29.9681 29.8847 30.147 30.0642Z" fill="white"/>
<path d="M31.6677 20.1026C32.2939 20.0128 32.2939 20.2821 32.3834 20.5513C33.278 22.4359 34.1725 24.3205 35.0671 26.2051C35.246 26.5641 35.246 26.8333 34.8882 26.9231C34.7987 26.9231 34.7987 27.0128 34.7093 27.0128C33.9936 27.2821 33.278 28.2692 32.5623 28C31.9361 27.7308 31.5783 26.8333 31.131 26.2051C30.3259 25.0385 29.5208 23.8718 28.7157 22.7949C28.3578 22.3462 28.4473 22.0769 28.8946 21.8077C29.8786 21.0897 30.8626 20.5513 31.6677 20.1026Z" fill="white"/>
<path d="M45.0863 17.9487C46.2492 18.218 47.0543 18.3974 47.9489 18.4872C48.4856 18.5769 48.754 18.7564 48.5751 19.3846C48.0383 21.2692 47.5016 23.1539 47.0543 25.0385C46.8754 25.6667 46.6965 25.7564 45.9808 25.5769C43.8339 25.0385 43.8339 25.0385 44.0128 22.8846C44.1022 21.5385 44.2811 20.1026 44.3706 18.7564C44.4601 18.1282 44.639 17.6795 45.0863 17.9487Z" fill="white"/>
<path d="M40.8818 24.141C41.1502 25.0384 40.7029 25.3077 39.6294 25.3974C37.9297 25.4872 37.9297 25.5769 37.4824 23.8718C37.1246 22.3461 36.7668 20.8205 36.3195 19.2948C36.1406 18.6666 36.23 18.3974 36.9457 18.3077C37.8403 18.2179 38.8243 18.0384 39.7188 17.8589C40.2556 17.7692 40.4345 17.9487 40.524 18.5769C40.524 20.3718 40.7029 22.1666 40.8818 24.141Z" fill="white"/>
</g>
<defs>
<clipPath id="clip0_186_22212">
<rect width="84" height="84" fill="white"/>
</clipPath>
</defs>
</svg>
