<svg width="40" height="40" viewBox="0 0 40 40" fill="none" xmlns="http://www.w3.org/2000/svg">
<g clip-path="url(#clip0_191_25639)">
<path d="M24.1667 12.5C24.3856 12.2812 24.6455 12.1076 24.9314 11.9891C25.2174 11.8707 25.5239 11.8097 25.8334 11.8097C26.1429 11.8097 26.4494 11.8707 26.7354 11.9891C27.0214 12.1076 27.2812 12.2812 27.5001 12.5C27.719 12.7189 27.8926 12.9788 28.011 13.2647C28.1295 13.5507 28.1904 13.8572 28.1904 14.1667C28.1904 14.4762 28.1295 14.7827 28.011 15.0687C27.8926 15.3547 27.719 15.6145 27.5001 15.8334L16.2501 27.0834L11.6667 28.3334L12.9167 23.75L24.1667 12.5Z" stroke="#667085" stroke-width="1.66667" stroke-linecap="round" stroke-linejoin="round"/>
</g>
<defs>
<clipPath id="clip0_191_25639">
<rect width="20" height="20" fill="white" transform="translate(10 10)"/>
</clipPath>
</defs>
</svg>
