<svg width="21" height="20" viewBox="0 0 21 20" fill="none" xmlns="http://www.w3.org/2000/svg">
<path d="M21 9.72489C21 4.35136 16.2907 0.000117109 10.5137 0.000117109C4.70926 -0.0260952 0 4.35136 0 9.72489C0 15.0984 4.70926 19.4497 10.5137 19.4497C16.2907 19.4497 21 15.0722 21 9.72489ZM1.23207 9.72489C1.23207 4.98046 5.39374 1.12725 10.5137 1.12725C15.6336 1.12725 19.7679 4.98046 19.7679 9.72489C19.7679 14.4693 15.6063 18.3225 10.5137 18.3225C5.39374 18.2963 1.23207 14.4431 1.23207 9.72489ZM10.4316 6.57941C9.99348 6.57941 9.61017 6.23865 9.61017 5.81925C9.61017 5.39985 9.9661 5.05909 10.4316 5.05909C10.897 5.05909 11.2529 5.39985 11.2529 5.81925C11.2529 6.23865 10.897 6.57941 10.4316 6.57941ZM16.0717 14.3383C16.0717 14.2858 16.0443 14.2596 16.017 14.2072L15.661 13.7878C15.661 13.7878 15.6336 13.7616 15.6336 13.7092C15.6336 13.6829 15.6884 13.6567 15.6884 13.6567C15.6884 13.6567 16.0443 13.4208 16.0991 13.3946C16.2086 13.3422 16.2086 13.2373 16.2086 13.2373L16.236 13.0801C16.236 13.0539 16.5098 11.2452 16.5372 11.1141C16.5645 11.0355 16.5372 10.9569 16.4824 10.9044C16.455 10.852 16.3729 10.8258 16.2907 10.7996C16.2634 10.7996 15.5241 10.6947 15.442 10.6947C15.4146 10.6947 15.3872 10.721 15.3872 10.7472C15.3872 10.7996 15.4146 10.8258 15.442 10.8258C15.8253 10.9831 16.0717 11.3501 16.0717 11.7432C15.4694 11.6384 15.3051 11.3238 15.2777 10.9307C15.2777 10.9044 15.2503 10.8782 15.1956 10.8782C15.1408 10.8782 15.1408 10.9044 15.1134 10.9044L14.867 12.6345C14.867 12.6607 14.8944 12.6869 14.9218 12.6869C14.9765 12.6869 15.0039 12.6607 15.0039 12.6607C15.1956 12.2937 15.5515 12.084 15.9896 12.0578C15.8801 12.451 15.5789 12.7655 15.1682 12.8704C14.8396 12.8442 14.5111 12.8179 14.1825 12.7917C13.8814 12.6869 13.6623 12.5558 13.5802 12.2413C13.5802 12.1888 13.5802 12.1102 13.6076 12.0578C13.6897 11.8481 13.8266 11.7432 13.9909 11.7957C14.1825 11.8481 14.1825 12.0316 14.1278 12.2413C14.1004 12.3199 14.0456 12.3985 13.9909 12.451C14.1825 12.451 14.3468 12.3723 14.4563 12.2151C14.6754 11.9267 14.648 11.4811 14.292 11.2976C14.073 11.1666 13.7445 11.3238 13.5254 11.6122C13.6076 11.1928 13.8814 10.7734 13.9087 10.4588C13.9361 10.0132 13.7445 9.48898 13.498 9.38413C13.1969 9.48898 12.9505 9.98701 12.9231 10.4326C12.8957 10.7734 13.1421 11.1666 13.1421 11.586C12.9505 11.2976 12.6767 11.1141 12.4302 11.219C12.0743 11.3501 11.9922 11.7957 12.1565 12.1102C12.266 12.2937 12.4302 12.3723 12.5945 12.3985C12.5398 12.3461 12.485 12.2675 12.485 12.1888C12.4302 11.9791 12.485 11.7957 12.6767 11.7694C12.8683 11.7432 12.9778 11.8743 13.0326 12.084C13.0326 12.1364 13.06 12.1888 13.06 12.2151C12.9231 12.5558 12.6767 12.6869 12.3481 12.7393C12.0196 12.7393 11.691 12.7131 11.3898 12.7131H11.3625C10.9791 12.6345 10.7053 12.2937 10.6232 11.8743C11.0065 11.9267 11.3351 12.1626 11.472 12.4772C11.472 12.5034 11.4993 12.5296 11.5541 12.5296C11.6089 12.5296 11.6362 12.4772 11.6362 12.4772V10.852C11.6362 10.8258 11.6089 10.7996 11.5541 10.7996C11.4993 10.7996 11.472 10.8258 11.472 10.852C11.3898 11.1404 11.2256 11.4287 10.6232 11.4811C10.7053 11.0879 10.9518 10.7734 11.3625 10.6685C11.3898 10.6685 11.3898 10.6685 11.4172 10.6423C11.4172 10.6423 11.4446 10.6161 11.4446 10.5899C11.4446 10.5637 11.4446 10.5375 11.4172 10.5375C11.3898 10.5113 11.3625 10.5113 11.3625 10.5113H9.50065C9.50065 10.5113 9.47327 10.5113 9.44589 10.5375C9.44589 10.5375 9.41852 10.5637 9.41852 10.5899C9.41852 10.6161 9.41851 10.6161 9.44589 10.6423C9.47327 10.6685 9.47327 10.6685 9.50065 10.6685C9.91134 10.7472 10.1851 10.9307 10.2399 11.4811C9.61017 11.4287 9.44589 11.1666 9.36376 10.852C9.36376 10.8258 9.33638 10.7996 9.28162 10.7996C9.22686 10.7996 9.19948 10.8258 9.19948 10.852V12.451C9.19948 12.4772 9.22686 12.5034 9.28162 12.5034C9.33638 12.5034 9.36376 12.4772 9.36376 12.451C9.50065 12.1102 9.82921 11.9005 10.2399 11.8481C10.1851 12.3461 9.9661 12.6345 9.50065 12.6869H9.47327C9.14472 12.6869 8.81617 12.7131 8.51499 12.7131C8.21382 12.6345 7.94003 12.5296 7.80313 12.2151C7.80313 12.1626 7.80313 12.084 7.80313 12.0316C7.85789 11.8219 7.99479 11.6908 8.15906 11.717C8.35072 11.7432 8.40548 11.9267 8.35072 12.1364C8.32334 12.2151 8.29596 12.2937 8.2412 12.3461C8.43286 12.3199 8.56975 12.2413 8.67927 12.0578C8.84355 11.7432 8.76141 11.3238 8.40548 11.1666C8.15906 11.0617 7.88527 11.2714 7.66623 11.5598C7.69361 11.1404 7.91265 10.6947 7.91265 10.3802C7.88527 9.90837 7.61147 9.43655 7.33768 9.35791C7.06389 9.48898 6.87223 10.0132 6.92699 10.4588C6.95437 10.7734 7.22816 11.1666 7.3103 11.586C7.06389 11.3238 6.76271 11.1666 6.54368 11.2976C6.21512 11.4811 6.18775 11.9267 6.40678 12.2151C6.54368 12.3985 6.70795 12.451 6.87223 12.451C6.81747 12.3985 6.76271 12.3461 6.73533 12.2413C6.65319 12.0578 6.68057 11.8481 6.87223 11.7957C7.03651 11.7432 7.20078 11.8743 7.25554 12.0578C7.28292 12.1102 7.28292 12.1626 7.28292 12.1888C7.20078 12.5558 6.98175 12.7131 6.65319 12.7917C6.32464 12.8179 6.02347 12.8442 5.69492 12.8704C5.28422 12.7655 4.95567 12.451 4.81878 12.0316C5.25685 12.0316 5.61278 12.2675 5.80443 12.6345C5.80443 12.6607 5.83181 12.6869 5.88657 12.6607C5.91395 12.6607 5.94133 12.6345 5.94133 12.6082L5.69492 10.8782C5.69492 10.852 5.66754 10.852 5.61278 10.852C5.55802 10.852 5.53064 10.8782 5.53064 10.9044C5.50326 11.2976 5.33898 11.586 4.73664 11.717C4.73664 11.2976 4.98305 10.9569 5.36636 10.7996C5.39374 10.7996 5.42112 10.7734 5.42112 10.721C5.42112 10.6685 5.36636 10.6685 5.33898 10.6685C5.25685 10.6685 4.5176 10.7734 4.49022 10.7734C4.40808 10.7734 4.35332 10.8258 4.29857 10.8782C4.24381 10.9307 4.24381 11.0093 4.24381 11.0879C4.27119 11.1928 4.5176 12.8704 4.54498 13.0276C4.54498 13.0276 4.57236 13.1849 4.57236 13.2373C4.57236 13.2898 4.6545 13.3422 4.6545 13.3422C4.6545 13.3422 5.03781 13.5781 5.09257 13.6305C5.14733 13.6829 5.11995 13.7616 5.11995 13.7616L4.7914 14.2072C4.76402 14.2334 4.73664 14.2596 4.73664 14.2596C4.73664 14.2858 4.73664 14.2858 4.73664 14.312C4.73664 14.3645 4.76402 14.4169 4.81878 14.4431H15.9348C16.017 14.4431 16.0717 14.3907 16.0717 14.3383ZM8.21382 13.7616L6.98175 13.814C6.84485 13.814 6.73533 13.7354 6.73533 13.6043V13.447C6.73533 13.3422 6.81747 13.2373 6.95437 13.2373L8.18644 13.1849C8.32334 13.1849 8.43286 13.2636 8.43286 13.3946V13.5519C8.46024 13.6567 8.35072 13.7616 8.21382 13.7616ZM10.9518 13.4732L10.5137 13.8926C10.4863 13.9189 10.4316 13.9189 10.3768 13.8926L9.93872 13.4732C9.91134 13.447 9.91134 13.3946 9.93872 13.3684L10.3768 12.9752C10.4042 12.949 10.4589 12.949 10.5137 12.9752L10.9518 13.3684C10.9791 13.3946 10.9791 13.447 10.9518 13.4732ZM14.1004 13.6305C14.1004 13.7354 13.9909 13.8402 13.854 13.8402L12.6219 13.7878C12.485 13.7878 12.4029 13.6829 12.4029 13.5781V13.4208C12.4029 13.316 12.5124 13.2111 12.6493 13.2111L13.8814 13.2636C14.0183 13.2636 14.1004 13.3684 14.1004 13.4732V13.6305ZM9.309 4.6397V3.19802C9.309 3.17181 9.33638 3.1456 9.39114 3.1456C9.44589 3.1456 9.44589 3.17181 9.47327 3.19802C9.55541 3.46014 9.69231 3.72227 10.2399 3.74848C10.2125 3.51257 10.1578 3.35529 10.0482 3.22423C9.93872 3.11938 9.80183 3.04075 9.58279 3.01453C9.58279 3.01453 9.55541 3.01453 9.52803 2.98832C9.52803 2.98832 9.50065 2.96211 9.50065 2.9359C9.50065 2.90968 9.52803 2.90968 9.52803 2.88347C9.55541 2.85726 9.55541 2.85726 9.58279 2.85726H11.2803C11.2803 2.85726 11.3077 2.85726 11.3351 2.88347C11.3351 2.88347 11.3625 2.90968 11.3625 2.9359C11.3625 2.96211 11.3625 2.96211 11.3351 2.96211C11.3351 2.96211 11.3077 2.98832 11.2803 2.98832C11.0613 3.06696 10.8696 3.19802 10.7601 3.38151C10.7053 3.48636 10.6506 3.5912 10.6506 3.72227C11.1982 3.66984 11.3351 3.43393 11.4172 3.17181C11.4172 3.1456 11.4446 3.11938 11.4993 3.11938C11.5541 3.11938 11.5815 3.1456 11.5815 3.17181V4.61349V4.6397C11.5815 4.66591 11.5541 4.69212 11.4993 4.69212C11.4446 4.69212 11.4446 4.66591 11.4172 4.6397C11.2803 4.35136 11.0065 4.14166 10.6506 4.08924C10.678 4.2203 10.7053 4.32515 10.7875 4.43C10.897 4.61349 11.0887 4.77076 11.3077 4.82318C11.3077 4.82318 11.3351 4.82318 11.3625 4.8494C11.3625 4.8494 11.3898 4.87561 11.3898 4.90182C11.3898 4.92803 11.3898 4.92803 11.3625 4.95425C11.3351 4.98046 11.3077 4.98046 11.3077 4.98046H9.58279C9.58279 4.98046 9.55541 4.98046 9.52803 4.95425C9.52803 4.95425 9.50065 4.92803 9.50065 4.90182C9.50065 4.87561 9.50065 4.8494 9.52803 4.8494C9.52803 4.8494 9.55541 4.82318 9.58279 4.82318C9.80183 4.77076 9.93872 4.71833 10.0482 4.61349C10.1578 4.48242 10.2399 4.29894 10.2673 4.06303C9.91134 4.11545 9.63755 4.29894 9.50065 4.61349C9.50065 4.6397 9.47327 4.66591 9.41852 4.66591C9.33638 4.69212 9.309 4.66591 9.309 4.6397ZM10.103 7.6279C10.103 7.47063 10.2399 7.33957 10.4316 7.33957C10.6232 7.33957 10.7601 7.47063 10.7601 7.6279C10.7601 7.78518 10.6232 7.91624 10.4316 7.91624C10.2399 7.91624 10.103 7.78518 10.103 7.6279ZM10.1304 6.92017C10.1304 6.7629 10.2673 6.63183 10.4316 6.63183C10.6232 6.63183 10.7601 6.7629 10.7601 6.92017C10.7601 7.07744 10.6232 7.20851 10.4316 7.20851C10.2673 7.20851 10.1304 7.07744 10.1304 6.92017ZM10.103 8.38806C10.103 8.20457 10.2399 8.07351 10.4316 8.07351C10.6232 8.07351 10.7601 8.20457 10.7601 8.38806C10.7601 8.57155 10.5958 8.70261 10.4316 8.70261C10.2399 8.6764 10.103 8.54533 10.103 8.38806ZM10.0756 9.17443C10.0756 8.99094 10.2399 8.83367 10.4316 8.83367C10.6232 8.83367 10.7875 8.99094 10.7875 9.17443C10.7875 9.35791 10.6232 9.51519 10.4316 9.51519C10.2399 9.48898 10.0756 9.35791 10.0756 9.17443ZM10.0756 9.98701C10.0756 9.80352 10.2399 9.64625 10.4316 9.64625C10.6232 9.64625 10.7875 9.80352 10.7875 9.98701C10.7875 10.1705 10.6232 10.3278 10.4316 10.3278C10.2399 10.3278 10.0756 10.1705 10.0756 9.98701ZM4.49022 10.1705C4.43546 10.1967 4.35332 10.2229 4.27119 10.2229C4.05215 10.2229 3.88788 10.0656 3.88788 9.85595C3.88788 9.67246 4.05215 9.51519 4.21643 9.48898C4.21643 9.46276 4.18905 9.41034 4.18905 9.38413C4.18905 9.3317 4.18905 9.30549 4.16167 9.25307C4.10691 9.27928 4.05215 9.27928 3.99739 9.27928C3.77836 9.27928 3.61408 9.122 3.61408 8.91231C3.61408 8.70261 3.77836 8.54533 3.99739 8.54533C4.05215 8.54533 4.10691 8.54533 4.13429 8.57155C4.16167 8.4667 4.16167 8.36185 4.18905 8.28321C4.16167 8.28321 4.10691 8.30942 4.07953 8.30942C3.8605 8.30942 3.69622 8.15215 3.69622 7.94245C3.69622 7.73275 3.88788 7.57548 4.07953 7.57548C4.21643 7.57548 4.32595 7.6279 4.3807 7.73275C4.43546 7.6279 4.5176 7.49684 4.57236 7.4182C4.54498 7.4182 4.49022 7.44442 4.46284 7.44442C4.24381 7.44442 4.07953 7.28714 4.07953 7.07744C4.07953 6.86774 4.24381 6.71047 4.46284 6.71047C4.68188 6.71047 4.84615 6.86774 4.84615 7.07744C4.95567 6.97259 5.06519 6.89396 5.17471 6.78911C4.98305 6.7629 4.87353 6.60562 4.87353 6.44835C4.87353 6.23865 5.03781 6.08137 5.25685 6.08137C5.47588 6.08137 5.64016 6.23865 5.64016 6.44835C5.64016 6.47456 5.64016 6.52698 5.61278 6.5532C5.74967 6.50077 5.88657 6.44835 6.02347 6.42214C5.94133 6.36971 5.88657 6.26486 5.88657 6.16001C5.88657 5.95031 6.05085 5.79304 6.26988 5.79304C6.48892 5.79304 6.65319 5.95031 6.65319 6.16001C6.65319 6.23865 6.62582 6.31729 6.57106 6.36971C6.70795 6.36971 6.87223 6.36971 6.98175 6.39592C6.95437 6.3435 6.92699 6.26486 6.92699 6.21244C6.92699 6.00274 7.09127 5.84546 7.3103 5.84546C7.52934 5.84546 7.69361 6.00274 7.69361 6.21244C7.69361 6.3435 7.61147 6.44835 7.52934 6.50077C7.55672 6.50077 7.55672 6.50077 7.58409 6.50077C7.58409 6.50077 7.72099 6.52698 7.91265 6.57941C7.88527 6.52698 7.85789 6.47456 7.85789 6.42214C7.85789 6.21244 8.04954 6.05516 8.2412 6.05516C8.46024 6.05516 8.62451 6.21244 8.62451 6.42214C8.62451 6.5532 8.54237 6.68426 8.43286 6.73668C8.51499 6.7629 8.62451 6.78911 8.70665 6.81532H8.73403C8.73403 6.78911 8.73403 6.78911 8.73403 6.7629C8.73403 6.5532 8.89831 6.39592 9.11734 6.39592C9.33638 6.39592 9.50065 6.5532 9.50065 6.7629C9.50065 6.89396 9.41851 6.99881 9.33638 7.05123C9.41851 7.10366 9.52803 7.15608 9.61017 7.20851C9.74707 7.28714 9.80183 7.36578 9.82921 7.44442C9.85659 7.52305 9.85658 7.60169 9.85658 7.60169V10.2229H9.41852L9.39114 7.8376C9.39114 7.8376 9.39114 7.81139 9.36376 7.75896C9.36376 7.70654 9.33638 7.65411 9.25424 7.6279C8.56975 7.31335 8.35072 7.26093 7.88527 7.10366C7.58409 7.02502 7.4472 6.99881 7.11864 6.92017C6.81747 6.86774 6.68057 6.86774 6.54368 6.86774C5.96871 6.86774 5.47588 7.10366 5.11995 7.47063C4.76402 7.8376 4.54498 8.36185 4.54498 8.91231C4.54498 8.96473 4.57236 9.30549 4.6545 9.46276C4.70926 9.67246 4.87353 9.93459 4.90091 10.0132C4.90091 10.0132 4.98305 10.1705 5.14733 10.485C5.01043 10.5113 4.7914 10.5375 4.62712 10.5375C4.62712 10.4326 4.54498 10.3016 4.49022 10.1705ZM11.6636 6.47456C11.8827 6.47456 12.0469 6.63183 12.0469 6.84153C12.0469 6.86774 12.0469 6.86774 12.0469 6.89396H12.0743C12.1565 6.86774 12.266 6.84153 12.3481 6.81532C12.2386 6.7629 12.1565 6.63183 12.1565 6.50077C12.1565 6.29107 12.3207 6.1338 12.5398 6.1338C12.7588 6.1338 12.9231 6.29107 12.9231 6.50077C12.9231 6.5532 12.8957 6.63183 12.8683 6.65805C13.06 6.60562 13.1695 6.57941 13.1695 6.57941C13.1969 6.57941 13.2243 6.57941 13.2243 6.57941C13.1147 6.52698 13.0326 6.39592 13.0326 6.29107C13.0326 6.08138 13.2243 5.9241 13.4159 5.9241C13.6349 5.9241 13.7992 6.08138 13.7992 6.29107C13.7992 6.36971 13.7718 6.42213 13.7445 6.47456C13.8814 6.44835 14.0456 6.44835 14.1552 6.44835C14.1004 6.39592 14.073 6.31729 14.073 6.23865C14.073 6.02895 14.2373 5.87168 14.4563 5.87168C14.6754 5.87168 14.8396 6.02895 14.8396 6.23865C14.8396 6.3435 14.7849 6.44835 14.7027 6.50077C14.8396 6.52698 14.9765 6.57941 15.1134 6.63183C15.1134 6.60562 15.0861 6.5532 15.0861 6.52698C15.0861 6.31729 15.2503 6.16001 15.4694 6.16001C15.6884 6.16001 15.8527 6.31729 15.8527 6.52698C15.8527 6.71047 15.7158 6.84153 15.5515 6.86774C15.661 6.94638 15.7705 7.05123 15.8801 7.15608C15.8801 6.94638 16.0717 6.78911 16.2634 6.78911C16.4824 6.78911 16.6467 6.94638 16.6467 7.15608C16.6467 7.36578 16.4824 7.52305 16.2634 7.52305C16.236 7.52305 16.1812 7.52305 16.1538 7.49684C16.236 7.60169 16.2907 7.70654 16.3455 7.81139C16.4276 7.70654 16.5372 7.65411 16.6741 7.65411C16.8931 7.65411 17.0574 7.81139 17.0574 8.02109C17.0574 8.23079 16.8931 8.38806 16.6741 8.38806C16.6193 8.38806 16.5919 8.38806 16.5372 8.36185C16.5645 8.4667 16.5919 8.57155 16.5919 8.65018C16.6467 8.62397 16.7014 8.62397 16.7562 8.62397C16.9752 8.62397 17.1395 8.78125 17.1395 8.99094C17.1395 9.20064 16.9479 9.35791 16.7562 9.35791C16.7014 9.35791 16.6467 9.3317 16.5919 9.3317C16.5919 9.35792 16.5919 9.41034 16.5645 9.46276C16.5645 9.51519 16.5372 9.5414 16.5372 9.56761C16.7288 9.59383 16.8657 9.7511 16.8657 9.93459C16.8657 10.1443 16.7014 10.3016 16.4824 10.3016C16.4003 10.3016 16.3181 10.2753 16.2634 10.2491C16.2086 10.354 16.1265 10.5113 16.0717 10.6685C15.9074 10.6423 15.6884 10.6161 15.5515 10.6161C15.6884 10.3278 15.7979 10.1443 15.7979 10.1443C15.7979 10.0919 15.9622 9.82974 16.0443 9.59383C16.0991 9.41034 16.1265 9.09579 16.1265 9.04337C16.1265 8.4667 15.9074 7.96866 15.5515 7.60169C15.3051 7.15608 14.7849 6.92017 14.2099 6.92017C14.1004 6.92017 13.9361 6.92017 13.6349 6.97259C13.3064 7.05123 13.1695 7.07744 12.8683 7.15608C12.3755 7.28714 12.1838 7.36578 11.472 7.68033C11.4172 7.70654 11.3625 7.75896 11.3625 7.81139C11.3351 7.86381 11.3625 7.89003 11.3625 7.89003L11.3351 10.2753H10.897V7.65411C10.897 7.65411 10.897 7.57548 10.9244 7.49684C10.9518 7.4182 11.0339 7.31335 11.1434 7.26093C11.2256 7.2085 11.3351 7.15608 11.4172 7.10366C11.3077 7.05123 11.2529 6.92017 11.2529 6.81532C11.2803 6.63183 11.4446 6.47456 11.6636 6.47456Z" fill="#53698A"/>
</svg>
