<?xml version="1.0" standalone="no"?>
<!DOCTYPE svg PUBLIC "-//W3C//DTD SVG 20010904//EN"
 "http://www.w3.org/TR/2001/REC-SVG-20010904/DTD/svg10.dtd">
<svg version="1.0" xmlns="http://www.w3.org/2000/svg"
 width="512.000000pt" height="512.000000pt" viewBox="0 0 512.000000 512.000000"
 preserveAspectRatio="xMidYMid meet">

<g transform="translate(0.000000,512.000000) scale(0.100000,-0.100000)"
fill="#000000" stroke="none">
<path d="M884 5111 c-47 -12 -133 -62 -160 -94 -14 -17 -37 -53 -52 -81 l-27
-51 0 -2325 0 -2325 27 -51 c40 -76 70 -107 140 -145 l63 -34 1685 0 1685 0
63 34 c70 38 100 69 140 145 l27 51 3 1725 c1 949 0 1741 -3 1760 -5 30 -101
130 -673 704 -385 386 -681 674 -699 682 -27 12 -207 14 -1110 13 -593 -1
-1092 -4 -1109 -8z m1998 -833 l3 -523 34 -63 c38 -70 69 -100 145 -140 l51
-27 523 -3 522 -3 0 -1599 0 -1600 -1600 0 -1600 0 0 2240 0 2240 960 0 959 0
3 -522z m688 -73 l365 -365 -368 0 -367 0 0 365 c0 201 1 365 3 365 1 0 166
-164 367 -365z"/>
<path d="M1855 4466 c-74 -34 -95 -83 -95 -220 l0 -104 -52 -17 c-154 -50
-314 -178 -371 -297 -103 -215 -66 -418 108 -594 124 -126 244 -176 463 -194
87 -7 126 -15 170 -35 213 -97 213 -312 0 -410 -118 -54 -247 -43 -369 30
-107 65 -179 60 -242 -15 -55 -64 -44 -158 25 -222 42 -39 158 -99 225 -117
l41 -11 4 -119 c3 -129 11 -150 72 -195 39 -29 133 -29 172 0 61 45 69 66 72
194 l4 118 51 17 c157 51 312 175 370 297 103 215 66 418 -108 594 -125 126
-243 176 -463 194 -87 7 -126 15 -170 35 -213 97 -213 312 0 410 118 54 247
43 369 -30 52 -32 85 -45 112 -45 155 -1 221 175 106 281 -44 41 -142 92 -218
115 l-49 14 -4 119 c-3 129 -11 150 -70 194 -34 25 -113 32 -153 13z"/>
<path d="M2975 2866 c-67 -29 -105 -106 -91 -181 9 -47 59 -102 104 -115 24
-7 160 -10 394 -8 342 3 358 4 384 24 53 39 69 71 69 134 0 63 -16 95 -69 134
-26 20 -41 21 -394 23 -290 2 -373 0 -397 -11z"/>
<path d="M2975 2226 c-67 -29 -105 -106 -91 -181 9 -47 59 -102 104 -115 24
-7 160 -10 394 -8 342 3 358 4 384 24 53 39 69 71 69 134 0 63 -16 95 -69 134
-26 20 -41 21 -394 23 -290 2 -373 0 -397 -11z"/>
<path d="M1375 1586 c-67 -29 -105 -106 -91 -181 9 -47 59 -102 104 -115 25
-8 401 -10 1194 -8 1150 3 1157 3 1184 24 53 39 69 71 69 134 0 63 -16 95 -69
134 -27 21 -33 21 -1194 23 -955 2 -1173 0 -1197 -11z"/>
<path d="M1375 946 c-67 -29 -105 -106 -91 -181 9 -47 59 -102 104 -115 25 -8
401 -10 1194 -8 1150 3 1157 3 1184 24 53 39 69 71 69 134 0 63 -16 95 -69
134 -27 21 -33 21 -1194 23 -955 2 -1173 0 -1197 -11z"/>
</g>
</svg>
