<svg width="71" height="71" viewBox="0 0 71 71" fill="none" xmlns="http://www.w3.org/2000/svg">
<g clip-path="url(#clip0_92_23236)">
<path d="M64.6486 55.829C64.573 55.9049 64.4973 56.0566 64.4217 56.1325C63.4388 57.4979 62.3802 58.7874 61.246 60.0011C60.868 60.3803 60.6411 60.4562 60.2631 60.0769C58.0703 57.8771 55.8019 55.7532 53.5336 53.5534C53.2311 53.25 53.1555 53.0983 53.5336 52.719C54.3653 51.8846 55.1214 51.0502 55.7263 50.0641C55.9532 49.6848 56.18 49.6848 56.4824 49.9124C59.0533 51.7329 61.6241 53.4776 64.2705 55.2222C64.4217 55.4498 64.6486 55.5256 64.6486 55.829Z" fill="white"/>
<path d="M64.4217 14.8675C64.4217 15.0951 64.1948 15.1709 64.0436 15.3226C61.4728 17.219 58.902 19.0395 56.3312 20.9359C56.0287 21.1635 55.8019 21.1635 55.575 20.7842C54.8945 19.7981 54.1384 18.8878 53.3067 18.0534C53.0042 17.75 53.0798 17.5983 53.3067 17.2949C55.575 15.0192 57.7678 12.7436 60.0362 10.4679C60.263 10.2404 60.4142 10.1645 60.7167 10.4679C62.0021 11.7575 63.1363 13.1229 64.1948 14.64C64.3461 14.7158 64.4217 14.7917 64.4217 14.8675Z" fill="white"/>
<path d="M69.8658 44.4509C69.8658 44.5267 69.7902 44.6026 69.7902 44.7543C69.3365 46.4231 68.8072 48.016 68.1267 49.5331C67.9755 49.9124 67.8243 50.0641 67.3706 49.9124C64.4973 48.6229 61.624 47.4092 58.7508 46.1955C58.2971 46.0438 58.2215 45.8163 58.4483 45.3611C58.902 44.2992 59.2801 43.2372 59.5825 42.0994C59.6581 41.7201 59.8093 41.6442 60.1874 41.7201C63.2875 42.4786 66.312 43.2372 69.4121 43.9957C69.639 44.0716 69.9414 43.9957 69.8658 44.4509Z" fill="white"/>
<path d="M18.1469 53.4776C17.9956 53.6293 17.92 53.781 17.7688 53.8568C15.6516 56.0566 13.5345 58.2564 11.4174 60.4562C10.9637 60.9113 10.7368 60.9872 10.2076 60.4562C9.07337 59.2425 8.0148 58.0289 7.03184 56.7393C6.72939 56.3601 6.805 56.2083 7.18306 55.9049C9.75388 54.0844 12.2491 52.188 14.7443 50.3675C14.9711 50.2158 15.198 49.9883 15.4248 50.3675C16.1809 51.3536 16.9371 52.3398 17.8444 53.1742C17.9956 53.25 18.0712 53.4017 18.1469 53.4776Z" fill="white"/>
<path d="M59.8849 28.749C59.5825 28.8248 59.5069 28.5972 59.4313 28.3697C59.1288 27.2319 58.6751 26.1699 58.1459 25.1079C57.919 24.7287 58.1459 24.5011 58.4483 24.3494C61.246 22.984 64.1192 21.6186 66.9169 20.2532C67.295 20.0257 67.5218 20.1015 67.673 20.5566C68.3535 22.1496 68.9584 23.7425 69.4877 25.4113C69.6389 25.8665 69.4877 26.0182 69.034 26.1699C66.0852 27.0043 63.0607 27.9146 60.1118 28.749C60.0362 28.6731 59.9606 28.6731 59.8849 28.749Z" fill="white"/>
<path d="M49.6773 56.0566C49.9042 56.0566 49.9798 56.2842 50.131 56.4359C51.9457 59.015 53.6848 61.594 55.4995 64.1731C55.7263 64.5524 55.7263 64.7041 55.3483 64.9316C53.9116 65.8419 52.3994 66.7522 50.8871 67.5107C50.5091 67.7383 50.2822 67.6624 50.0554 67.2073C48.77 64.3248 47.409 61.5182 46.048 58.6357C45.8967 58.3323 45.7455 58.1047 46.1992 57.953C47.3334 57.422 48.3919 56.8152 49.4505 56.1325C49.4505 56.1325 49.6017 56.1325 49.6773 56.0566Z" fill="white"/>
<path d="M24.8009 58.2564C24.7253 58.4081 24.6497 58.5598 24.6497 58.6357C23.3643 61.4423 22.0033 64.1731 20.7179 66.9797C20.4154 67.5865 20.1886 67.5865 19.6593 67.2831C18.2227 66.5246 16.786 65.6902 15.425 64.7799C15.0469 64.5524 14.9713 64.3248 15.2738 63.9455C17.0885 61.3665 18.9032 58.7874 20.6423 56.2083C20.8691 55.9049 21.0203 55.7532 21.3984 56.0566C22.3813 56.7393 23.3643 57.3462 24.4229 57.8771C24.6497 57.953 24.8009 58.0288 24.8009 58.2564Z" fill="white"/>
<path d="M38.6379 70.9242C38.1843 71.0759 38.033 70.6966 38.033 70.2415C37.8062 67.1314 37.5794 64.0214 37.3525 60.9113C37.3525 60.5321 37.4282 60.3804 37.8062 60.3804C39.016 60.3045 40.1502 60.0769 41.2844 59.8494C41.6624 59.7735 41.8137 59.8494 41.8893 60.2286C42.6454 63.3387 43.4015 66.3729 44.1577 69.4829C44.3089 70.0139 44.082 70.0898 43.704 70.1656C42.0405 70.469 40.377 70.6966 38.6379 70.9242Z" fill="white"/>
<path d="M33.0426 60.9872C32.7401 64.0972 32.4377 67.2073 32.1352 70.3932C32.1352 70.7724 31.984 70.9241 31.5303 70.8483C29.7913 70.6207 28.1278 70.3173 26.4643 69.938C25.935 69.7863 25.935 69.5588 26.0106 69.1036C26.8424 66.1453 27.6741 63.187 28.4302 60.2286C28.5059 59.8494 28.6571 59.6218 29.1864 59.6976C30.2449 59.9252 31.3791 60.1528 32.4377 60.3803C32.967 60.3803 33.1938 60.532 33.0426 60.9872Z" fill="white"/>
<path d="M1.0586 26.7767C1.58789 24.8045 2.11717 23.1357 2.8733 21.4669C3.02452 21.1635 3.10014 21.1635 3.40259 21.2393C6.35147 22.5289 9.30035 23.8184 12.3248 25.0321C12.7029 25.1838 12.7029 25.4114 12.5517 25.7148C12.098 26.7767 11.7199 27.8387 11.4175 28.9765C11.3419 29.3558 11.115 29.4317 10.737 29.3558C7.71249 28.5973 4.68799 27.9146 1.6635 27.156C1.36105 27.0802 0.907377 27.0802 1.0586 26.7767Z" fill="white"/>
<path d="M11.1907 42.4028C11.4931 42.4028 11.5687 42.5545 11.6444 42.782C12.0224 43.9199 12.4005 45.0577 12.9298 46.0438C13.1566 46.4231 12.9298 46.5748 12.6273 46.7265C9.75404 48.0919 6.95639 49.5331 4.08312 50.8985C3.78067 51.0502 3.55383 51.0502 3.4026 50.6709C2.64648 49.078 2.04158 47.4092 1.5123 45.7404C1.36107 45.3611 1.5123 45.2094 1.89036 45.0577C4.91485 44.1474 7.93935 43.2372 11.0395 42.4028C11.0395 42.4028 11.1151 42.4028 11.1907 42.4028Z" fill="white"/>
<path d="M65.707 37.5481C64.1948 37.4722 62.6069 37.3205 61.0947 37.3205C60.4898 37.3205 60.3386 37.093 60.4142 36.4861C60.4142 35.4242 60.4142 34.438 60.3386 33.3761C60.263 32.8451 60.4142 32.6175 60.9435 32.6175C63.4387 32.39 66.0095 32.0866 68.5047 31.7831C68.6559 31.7831 68.8828 31.7831 69.034 31.7073C70.8487 31.4797 70.8487 31.4797 70.9243 33.2244C70.9999 34.5139 70.9243 35.7276 70.9243 37.0171C70.9243 37.5481 70.7731 37.7757 70.1682 37.6998C68.7315 37.6998 67.2193 37.6998 65.707 37.5481Z" fill="white"/>
<path d="M17.7689 17.75C17.6177 17.9017 17.5421 17.9776 17.4665 18.1293C16.7103 19.0396 16.0298 19.874 15.2737 20.7842C14.9713 21.1635 14.82 21.0876 14.442 20.8601C11.8712 19.0396 9.37595 17.2949 6.80513 15.5502C6.35145 15.2468 6.35145 15.0193 6.6539 14.64C7.63686 13.2746 8.69544 11.9851 9.82962 10.7714C10.2077 10.3921 10.3589 10.3921 10.737 10.7714C12.4004 12.4402 14.0639 14.0331 15.7274 15.702C16.2567 16.2329 16.8616 16.7639 17.3909 17.3708C17.5421 17.5225 17.6177 17.5983 17.7689 17.75Z" fill="white"/>
<path d="M56.0288 6.44764C55.9532 6.59934 55.8776 6.75105 55.8019 6.90276C53.9872 9.48182 52.2482 12.0609 50.4335 14.6399C50.2066 15.0192 49.9798 15.0951 49.6017 14.7917C48.6944 14.1848 47.7114 13.578 46.7285 13.047C46.3504 12.8194 46.2748 12.6677 46.5016 12.2884C47.8626 9.40597 49.2237 6.52349 50.5091 3.64101C50.6603 3.33759 50.8115 3.18588 51.1896 3.33759C52.7774 4.17199 54.2897 5.0064 55.7263 5.99251C55.8019 6.22007 55.8776 6.37178 56.0288 6.44764Z" fill="white"/>
<path d="M25.1033 12.4402C25.179 12.7436 24.9521 12.8195 24.8009 12.8953C23.7423 13.4263 22.6838 13.9573 21.7008 14.64C21.3227 14.8675 21.1715 14.7158 21.0203 14.4124C19.2056 11.8334 17.3909 9.17845 15.5762 6.59939C15.3494 6.29597 15.3494 6.14426 15.7274 5.91669C17.1641 4.93058 18.6763 4.09618 20.2642 3.33763C20.6422 3.18593 20.7934 3.26178 20.9447 3.5652C22.3057 6.44768 23.6667 9.33016 25.0277 12.1368C25.0277 12.2885 25.0277 12.3643 25.1033 12.4402Z" fill="white"/>
<path d="M5.21725 33.6795C6.7295 33.7553 8.31736 33.8312 9.82961 33.9071C10.4345 33.9071 10.5857 34.1346 10.5857 34.7415C10.5857 35.7276 10.5857 36.7895 10.6613 37.8515C10.737 38.4583 10.5101 38.5342 9.98083 38.61C7.18317 38.9135 4.38552 39.2169 1.66347 39.5203C0.226837 39.672 0.151225 39.672 0.0756124 38.1549C0 36.7895 0.0756124 35.4241 0 34.1346C0 33.5278 0.226837 33.3761 0.756124 33.4519C2.26837 33.5278 3.78062 33.6036 5.21725 33.6795Z" fill="white"/>
<path d="M33.2695 4.703C33.4207 6.90279 33.5719 8.41988 33.7231 10.0128C33.7231 10.3921 33.6475 10.5438 33.2695 10.6197C32.1353 10.6955 31.0767 10.8472 29.9425 11.1507C29.4888 11.2265 29.3376 11.1507 29.262 10.6955C28.5059 7.58548 27.7498 4.5513 26.9936 1.44125C26.918 1.06198 26.9936 0.91027 27.3717 0.834415C28.9596 0.455142 30.623 0.227578 32.2865 0.0758683C32.8914 1.35638e-05 33.0426 0.227578 33.0426 0.758561C33.1182 2.27565 33.2695 3.79275 33.2695 4.703Z" fill="white"/>
<path d="M38.1086 9.70941C38.411 6.59936 38.7135 3.56517 39.0159 0.530987C39.0915 0.0758583 39.1671 3.63216e-06 39.6208 0.0758583C41.2087 0.303422 42.7965 0.606841 44.3844 0.986115C44.9137 1.13782 45.0649 1.28953 44.9137 1.89637C44.0819 4.8547 43.2502 7.73718 42.4941 10.6955C42.3429 11.2265 42.1916 11.3782 41.6623 11.2265C40.755 10.9989 39.9233 10.8472 39.0159 10.6955C38.3354 10.6197 37.8817 10.3921 38.1086 9.70941Z" fill="white"/>
<path d="M49.753 39.2169C51.3409 39.5961 53.0043 40.0513 54.7434 40.4305C55.1215 40.5064 55.1971 40.734 55.0459 41.1132V41.1891C54.7434 42.1752 54.6678 43.3889 53.9117 43.844C53.1556 44.2991 52.2482 43.313 51.3409 43.0096C50.4335 42.7062 49.6018 42.2511 48.6944 41.8718C48.3164 41.7201 48.1651 41.5684 48.392 41.1132C48.6188 40.5823 48.8457 40.0513 48.9969 39.5203C49.1481 39.141 49.2993 39.0652 49.753 39.2169Z" fill="white"/>
<path d="M55.0458 29.735C55.1215 30.1143 54.8946 30.1143 54.6678 30.1902C52.9287 30.7211 51.2652 31.1763 49.5261 31.7073C49.4505 31.7073 49.3749 31.7831 49.3749 31.7831C48.6188 31.2521 48.77 30.3419 48.392 29.6592C48.1651 29.3558 48.392 29.204 48.6944 29.0523C50.2823 28.2938 51.7945 27.5352 53.3824 26.7767C53.5336 26.7008 53.7604 26.4733 53.9117 26.7767C54.4409 27.7628 54.7434 28.7489 55.0458 29.735Z" fill="white"/>
<path d="M49.8287 21.0118C49.9799 21.1635 50.1311 21.2393 50.2823 21.3911C50.8872 22.1496 51.8702 22.8323 52.0214 23.6667C52.1726 24.6528 50.8116 24.8804 50.0555 25.4872C49.2994 26.1699 48.4676 26.625 47.6359 27.2319C47.2578 27.5353 47.1066 27.4594 46.8798 27.0802C46.5017 26.4733 45.5944 26.0182 45.67 25.4114C45.7456 24.8045 46.5773 24.3494 47.1066 23.8184C47.8627 23.0599 48.6189 22.2255 49.375 21.4669C49.5262 21.3152 49.6774 21.1635 49.8287 21.0118Z" fill="white"/>
<path d="M52.1724 47.2575C51.9456 47.5609 51.7188 47.8643 51.4919 48.1678C49.9797 50.14 49.9797 50.14 48.2406 48.3953C47.4089 47.5609 46.5771 46.8024 45.7454 46.0438C45.4429 45.7404 45.4429 45.5887 45.7454 45.2094C47.182 43.5406 47.182 43.5406 48.9967 44.7543C49.9041 45.3611 50.8114 46.0438 51.7944 46.6507C51.87 46.8024 52.0968 46.9541 52.1724 47.2575Z" fill="white"/>
<path d="M25.6325 45.7404C25.5569 45.8163 25.4812 45.968 25.33 46.0438C24.1202 47.2575 22.9104 48.4712 21.7762 49.7607C21.4738 50.0641 21.247 50.14 20.9445 49.7607C20.264 49.078 19.281 48.3953 19.2054 47.5609C19.1298 46.6507 20.4908 46.3472 21.1713 45.7404C21.9275 45.1336 22.6836 44.6026 23.5153 43.9957C23.6665 43.9199 23.8178 43.7682 23.969 43.6923C23.969 43.6923 25.6325 45.5887 25.6325 45.7404Z" fill="white"/>
<path d="M52.8531 36.7895C51.9458 36.7137 50.9628 36.8654 50.0555 36.562C48.9213 36.1827 49.8286 35.1207 49.5262 34.438C49.3749 34.0588 49.5262 33.8312 50.0555 33.8312C51.7189 33.6795 53.3824 33.5278 54.9703 33.3002C55.4995 33.2244 55.802 33.3002 55.7264 33.9071C55.7264 34.6656 55.802 35.5 55.802 36.2585C55.802 36.7895 55.6508 37.0171 55.0459 36.9412C54.3654 36.8654 53.6092 36.8654 52.8531 36.7895Z" fill="white"/>
<path d="M47.0309 52.0363C47.1065 52.3397 46.804 52.4156 46.6528 52.4914C45.8967 52.9466 45.1405 53.3258 44.3844 53.781C44.0064 54.0085 43.8551 53.9327 43.6283 53.5534C42.8722 51.9605 42.1917 50.3675 41.4355 48.7746C41.2843 48.3953 41.2843 48.2436 41.6624 48.0919C41.8136 48.016 41.9648 47.9402 42.0404 47.8643C42.5697 47.6367 43.099 46.9541 43.5527 47.1058C44.0064 47.3333 44.3088 48.016 44.6113 48.547C45.2918 49.5331 45.9723 50.5192 46.6528 51.5053C46.804 51.8088 46.9552 51.9605 47.0309 52.0363Z" fill="white"/>
<path d="M17.1641 27.156C17.3153 27.2318 17.4665 27.3077 17.6934 27.3835C19.13 27.9904 20.5666 28.6731 22.0033 29.204C22.6838 29.4316 22.6838 29.735 22.4569 30.3419C21.7764 32.0865 21.7764 32.0865 19.9617 31.6314C18.7519 31.328 17.5421 31.0246 16.3323 30.797C15.9543 30.7211 15.7274 30.5694 15.8787 30.1143C16.1811 29.204 16.4836 28.3696 16.786 27.4594C16.786 27.2318 16.8616 27.0801 17.1641 27.156Z" fill="white"/>
<path d="M26.6913 53.8568C25.7083 53.4017 24.7254 52.7949 23.818 52.1122C23.5912 51.9605 23.8936 51.7329 23.9692 51.5812C24.9522 50.14 25.9352 48.7746 26.9181 47.3333C27.1449 47.0299 27.3718 46.8782 27.6742 47.1816C27.7498 47.2575 27.9011 47.3333 27.9767 47.4092C29.4889 48.3953 29.4889 48.3953 28.7328 50.0641C28.2035 51.2019 27.6742 52.2639 27.145 53.4017C26.9937 53.6293 26.9937 53.8568 26.6913 53.8568Z" fill="white"/>
<path d="M36.5207 50.3675C36.3695 49.7607 36.5963 49.4573 37.2012 49.4573C37.8817 49.5331 38.6379 48.8504 39.0915 49.3055C39.4696 49.6848 39.4696 50.5192 39.6208 51.1261C39.9233 52.2639 40.1501 53.4017 40.4526 54.5395C40.6038 54.9947 40.5282 55.2981 39.9989 55.3739C39.1671 55.5256 38.2598 55.6773 37.4281 55.8291C36.9744 55.9049 36.8988 55.6773 36.8232 55.2981C36.8232 53.6293 36.6719 52.0363 36.5207 50.3675Z" fill="white"/>
<path d="M33.0426 55.7532C31.9841 55.5257 31.2279 55.3739 30.4718 55.2222C30.0181 55.1464 29.8669 54.9188 30.0181 54.4637C30.4718 52.8707 30.9255 51.2778 31.3035 49.6848C31.4548 49.2297 31.606 49.0022 32.1353 49.2297C32.4377 49.3056 32.7402 49.3814 33.0426 49.4573C34.2524 49.6848 34.2524 49.6848 34.1012 50.8227C33.95 52.2639 33.7231 53.6293 33.6475 55.0705C33.5719 55.6774 33.4207 55.9808 33.0426 55.7532Z" fill="white"/>
<path d="M15.1225 35.9551C15.0469 34.2105 15.0469 34.2105 16.5592 34.2863C17.9958 34.3622 19.3568 34.438 20.7934 34.5139C21.3227 34.5139 21.474 34.7414 21.3983 35.1966C21.2471 35.8793 21.852 36.7137 21.2471 37.1688C20.7934 37.5481 19.9617 37.3964 19.3568 37.4722C18.2982 37.6239 17.1641 37.6998 16.1055 37.8515C15.5006 37.9273 15.1981 37.8515 15.1981 37.1688C15.1981 36.6378 15.1225 36.1827 15.1225 35.9551Z" fill="white"/>
<path d="M21.7008 39.2927C22.23 39.8237 22.23 40.6581 22.6081 41.2649C22.7593 41.5684 22.7593 41.7959 22.4569 41.9476C20.7934 42.7062 19.2055 43.5406 17.6177 44.375C17.2396 44.5267 17.0884 44.2991 17.0128 44.0716C16.7103 43.2372 16.4079 42.4786 16.1054 41.6442C16.0298 41.4167 15.9542 41.1132 16.3323 41.0374C18.0714 40.3547 19.8104 39.8237 21.7008 39.2927Z" fill="white"/>
<path d="M43.8551 24.0459C43.099 23.5908 42.4185 23.1357 41.6624 22.6805C41.6624 22.6805 41.738 22.3771 41.8136 22.2254C42.4941 20.7083 43.2502 19.1912 43.9307 17.5983C44.1576 17.1431 44.3844 17.0673 44.8381 17.2949C45.5186 17.75 46.2747 18.2051 47.0308 18.5844C47.3333 18.8119 47.4089 18.9637 47.1821 19.2671C46.1235 20.7083 45.1405 22.2254 44.1576 23.6667C44.082 23.8184 43.9307 23.8942 43.8551 24.0459Z" fill="white"/>
<path d="M25.4812 25.4113C25.1788 25.7906 24.8007 26.094 24.5739 26.5492C24.1202 27.3836 23.6665 27.4594 22.9104 26.8526C21.7006 25.9423 20.4908 25.1079 19.2054 24.2735C18.8274 24.0459 18.6761 23.8184 19.0542 23.4391C19.5835 22.8323 20.1128 22.1496 20.6421 21.4669C20.8689 21.1635 21.0957 21.0876 21.3982 21.391C22.608 22.6047 23.8934 23.8184 25.1032 24.9562C25.2544 25.1079 25.33 25.2596 25.4812 25.4113Z" fill="white"/>
<path d="M26.7668 16.9914C27.2961 16.9156 27.2961 17.1432 27.3717 17.3707C28.1278 18.9637 28.8839 20.5566 29.6401 22.1496C29.7913 22.453 29.7913 22.6805 29.4888 22.7564C29.4132 22.7564 29.4132 22.8323 29.3376 22.8323C28.7327 23.0598 28.1278 23.8942 27.5229 23.6667C26.9936 23.4391 26.6912 22.6805 26.3131 22.1496C25.6326 21.1635 24.9521 20.1773 24.2716 19.2671C23.9691 18.8878 24.0447 18.6602 24.4228 18.4327C25.2545 17.8258 26.0863 17.3707 26.7668 16.9914Z" fill="white"/>
<path d="M38.1086 15.1709C39.0916 15.3985 39.7721 15.5502 40.5282 15.6261C40.9819 15.7019 41.2087 15.8536 41.0575 16.3846C40.6038 17.9776 40.1502 19.5705 39.7721 21.1635C39.6209 21.6945 39.4696 21.7703 38.8647 21.6186C37.0501 21.1635 37.0501 21.1635 37.2013 19.343C37.2769 18.2051 37.4281 16.9915 37.5037 15.8536C37.5793 15.3227 37.7306 14.9434 38.1086 15.1709Z" fill="white"/>
<path d="M34.5549 20.4049C34.7817 21.1635 34.4036 21.391 33.4963 21.4669C32.0597 21.5427 32.0597 21.6186 31.6816 20.1774C31.3791 18.8878 31.0767 17.5983 30.6986 16.3088C30.5474 15.7778 30.623 15.5502 31.2279 15.4744C31.984 15.3985 32.8158 15.2468 33.5719 15.0951C34.0256 15.0192 34.1768 15.171 34.2524 15.7019C34.2524 17.219 34.4036 18.7361 34.5549 20.4049Z" fill="white"/>
</g>
<defs>
<clipPath id="clip0_92_23236">
<rect width="71" height="71" fill="white"/>
</clipPath>
</defs>
</svg>
