<svg width="93" height="101" viewBox="0 0 93 101" fill="none" xmlns="http://www.w3.org/2000/svg">
<circle cx="5.13301" cy="12.7083" r="5.13301" fill="white" fill-opacity="0.1"/>
<circle cx="5.13301" cy="33.2838" r="5.13301" fill="white" fill-opacity="0.1"/>
<circle cx="5.13301" cy="53.8591" r="5.13301" fill="white" fill-opacity="0.1"/>
<circle cx="5.13301" cy="74.4345" r="5.13301" fill="white" fill-opacity="0.1"/>
<circle cx="5.13301" cy="95.0098" r="5.13301" fill="white" fill-opacity="0.1"/>
<circle cx="25.7085" cy="12.7083" r="5.13301" fill="white" fill-opacity="0.1"/>
<circle cx="25.7085" cy="33.2838" r="5.13301" fill="white" fill-opacity="0.1"/>
<circle cx="25.7085" cy="53.8591" r="5.13301" fill="white" fill-opacity="0.1"/>
<circle cx="25.7085" cy="74.4345" r="5.13301" fill="white" fill-opacity="0.1"/>
<circle cx="25.7085" cy="95.0098" r="5.13301" fill="white" fill-opacity="0.1"/>
<circle cx="46.2836" cy="12.7083" r="5.13301" fill="white" fill-opacity="0.1"/>
<circle cx="46.2836" cy="33.2838" r="5.13301" fill="white" fill-opacity="0.1"/>
<circle cx="46.2836" cy="53.8591" r="5.13301" fill="white" fill-opacity="0.1"/>
<circle cx="46.2836" cy="74.4345" r="5.13301" fill="white" fill-opacity="0.1"/>
<circle cx="46.2836" cy="95.0098" r="5.13301" fill="white" fill-opacity="0.1"/>
<circle cx="66.8591" cy="12.7083" r="5.13301" fill="white" fill-opacity="0.1"/>
<circle cx="66.8591" cy="33.2838" r="5.13301" fill="white" fill-opacity="0.1"/>
<circle cx="66.8591" cy="53.8591" r="5.13301" fill="white" fill-opacity="0.1"/>
<circle cx="66.8591" cy="74.4345" r="5.13301" fill="white" fill-opacity="0.1"/>
<circle cx="66.8591" cy="95.0098" r="5.13301" fill="white" fill-opacity="0.1"/>
<circle cx="87.4345" cy="12.7083" r="5.13301" fill="white" fill-opacity="0.1"/>
<circle cx="87.4345" cy="33.2838" r="5.13301" fill="white" fill-opacity="0.1"/>
<circle cx="87.4345" cy="53.8591" r="5.13301" fill="white" fill-opacity="0.1"/>
<circle cx="87.4345" cy="74.4345" r="5.13301" fill="white" fill-opacity="0.1"/>
<circle cx="87.4345" cy="95.0098" r="5.13301" fill="white" fill-opacity="0.1"/>
</svg>
