<svg width="310" height="297" viewBox="0 0 310 297" fill="none" xmlns="http://www.w3.org/2000/svg">
<g clip-path="url(#clip0_92_22993)">
<path d="M278.69 275.214C278.317 275.588 277.945 276.335 277.572 276.709C272.726 283.44 267.508 289.797 261.917 295.78C260.053 297.65 258.935 298.023 257.071 296.154C246.262 285.31 235.08 274.84 223.898 263.996C222.407 262.5 222.034 261.752 223.898 259.882C227.998 255.769 231.725 251.656 234.707 246.795C235.825 244.925 236.944 244.925 238.435 246.047C251.108 255.021 263.781 263.622 276.826 272.222C277.572 273.344 278.69 273.718 278.69 275.214Z" fill="white"/>
<path d="M277.572 73.2906C277.572 74.4124 276.454 74.7863 275.708 75.5342C263.035 84.8825 250.362 93.8568 237.689 103.205C236.198 104.327 235.08 104.327 233.962 102.457C230.607 97.5961 226.88 93.109 222.78 88.9957C221.289 87.5 221.661 86.7521 222.78 85.2564C233.962 74.0385 244.771 62.8205 255.953 51.6026C257.071 50.4808 257.817 50.1068 259.308 51.6026C265.644 57.9594 271.235 64.6902 276.454 72.1688C277.199 72.5427 277.572 72.9167 277.572 73.2906Z" fill="white"/>
<path d="M304.409 219.124C304.409 219.498 304.036 219.872 304.036 220.62C301.8 228.846 299.191 236.699 295.836 244.177C295.091 246.047 294.345 246.795 292.109 246.047C277.945 239.69 263.781 233.707 249.617 227.724C247.38 226.977 247.008 225.855 248.126 223.611C250.362 218.376 252.226 213.141 253.717 207.532C254.09 205.662 254.835 205.288 256.699 205.662C271.981 209.402 286.89 213.141 302.173 216.88C303.291 217.254 304.782 216.88 304.409 219.124Z" fill="white"/>
<path d="M49.4569 263.622C48.7115 264.37 48.3387 265.118 47.5933 265.491C37.1566 276.336 26.72 287.18 16.2834 298.024C14.0469 300.267 12.9287 300.641 10.3196 298.024C4.72851 292.041 -0.489809 286.058 -5.33539 279.701C-6.82634 277.831 -6.4536 277.083 -4.58992 275.588C8.08314 266.613 20.3835 257.265 32.6838 248.291C33.802 247.543 34.9202 246.421 36.0384 248.291C39.7658 253.152 43.4932 258.013 47.966 262.126C48.7115 262.5 49.0842 263.248 49.4569 263.622Z" fill="white"/>
<path d="M255.208 141.72C253.717 142.094 253.344 140.972 252.971 139.85C251.48 134.241 249.244 129.006 246.635 123.771C245.516 121.902 246.635 120.78 248.126 120.032C261.917 113.301 276.081 106.571 289.872 99.8397C291.736 98.7179 292.854 99.0919 293.6 101.335C296.954 109.188 299.936 117.041 302.545 125.267C303.291 127.511 302.545 128.259 300.309 129.006C285.772 133.12 270.863 137.607 256.326 141.72C255.953 141.346 255.58 141.346 255.208 141.72Z" fill="white"/>
<path d="M204.888 276.336C206.007 276.336 206.379 277.457 207.125 278.205C216.07 290.919 224.643 303.633 233.589 316.346C234.707 318.216 234.707 318.964 232.844 320.085C225.762 324.573 218.307 329.06 210.852 332.799C208.988 333.921 207.87 333.547 206.752 331.303C200.415 317.094 193.706 303.259 186.997 289.049C186.251 287.553 185.506 286.432 187.742 285.684C193.333 283.066 198.552 280.075 203.77 276.709C203.77 276.709 204.516 276.709 204.888 276.336Z" fill="white"/>
<path d="M82.2576 287.18C81.8849 287.927 81.5122 288.675 81.5122 289.049C75.1756 302.885 68.4664 316.346 62.1298 330.182C60.6389 333.173 59.5207 333.173 56.9115 331.677C49.8295 327.938 42.7475 323.825 36.0383 319.338C34.1746 318.216 33.8018 317.094 35.2928 315.224C44.2385 302.511 53.1842 289.797 61.7571 277.083C62.8753 275.588 63.6208 274.84 65.4845 276.336C70.3301 279.701 75.1756 282.692 80.394 285.31C81.5122 285.684 82.2576 286.058 82.2576 287.18Z" fill="white"/>
<path d="M150.469 349.626C148.232 350.374 147.487 348.504 147.487 346.261C146.368 330.929 145.25 315.598 144.132 300.267C144.132 298.397 144.505 297.65 146.368 297.65C152.332 297.276 157.923 296.154 163.514 295.032C165.378 294.658 166.124 295.032 166.496 296.902C170.224 312.233 173.951 327.19 177.678 342.521C178.424 345.139 177.306 345.513 175.442 345.887C167.242 347.382 159.042 348.504 150.469 349.626Z" fill="white"/>
<path d="M122.886 300.641C121.395 315.972 119.904 331.303 118.413 347.009C118.413 348.878 117.668 349.626 115.431 349.252C106.858 348.13 98.6582 346.635 90.458 344.765C87.8489 344.017 87.8489 342.895 88.2216 340.652C92.3217 326.068 96.4218 311.485 100.149 296.902C100.522 295.032 101.267 293.91 103.877 294.284C109.095 295.406 114.686 296.528 119.904 297.65C122.513 297.65 123.632 298.397 122.886 300.641Z" fill="white"/>
<path d="M-34.7816 131.998C-32.1725 122.276 -29.5633 114.049 -25.8359 105.823C-25.0905 104.327 -24.7177 104.327 -23.2268 104.701C-8.69003 111.058 5.84671 117.415 20.7562 123.397C22.6199 124.145 22.6199 125.267 21.8744 126.763C19.638 131.998 17.7743 137.233 16.2833 142.842C15.9106 144.712 14.7924 145.085 12.9287 144.712C-1.98077 140.972 -16.8902 137.607 -31.7997 133.868C-33.2907 133.494 -35.5271 133.494 -34.7816 131.998Z" fill="white"/>
<path d="M15.1652 209.028C16.6561 209.028 17.0289 209.776 17.4016 210.897C19.2653 216.506 21.129 222.115 23.7381 226.977C24.8563 228.846 23.7381 229.594 22.2472 230.342C8.08319 237.073 -5.70808 244.177 -19.8721 250.908C-21.363 251.656 -22.4812 251.656 -23.2267 249.786C-26.9541 241.934 -29.936 233.707 -32.5451 225.481C-33.2906 223.611 -32.5451 222.863 -30.6815 222.115C-15.772 217.628 -0.862499 213.141 14.4197 209.028C14.4197 209.028 14.7924 209.028 15.1652 209.028Z" fill="white"/>
<path d="M283.908 185.096C276.454 184.722 268.626 183.974 261.171 183.974C258.189 183.974 257.444 182.853 257.817 179.861C257.817 174.626 257.817 169.765 257.444 164.53C257.071 161.912 257.817 160.791 260.426 160.791C272.726 159.669 285.399 158.173 297.7 156.677C298.445 156.677 299.563 156.677 300.309 156.303C309.254 155.182 309.254 155.182 309.627 163.782C310 170.139 309.627 176.122 309.627 182.479C309.627 185.096 308.882 186.218 305.9 185.844C298.818 185.844 291.363 185.844 283.908 185.096Z" fill="white"/>
<path d="M47.5932 87.5C46.8477 88.2479 46.4749 88.6218 46.1022 89.3697C42.3748 93.8568 39.0202 97.9701 35.2928 102.457C33.8019 104.327 33.0564 103.953 31.1927 102.831C18.5197 93.8568 6.21935 85.2564 -6.45371 76.656C-8.69013 75.1603 -8.69013 74.0385 -7.19918 72.1688C-2.3536 65.438 2.86472 59.0812 8.45577 53.0983C10.3195 51.2286 11.0649 51.2286 12.9286 53.0983C21.1288 61.3248 29.329 69.1774 37.5293 77.4038C40.1384 80.0214 43.1203 82.6389 45.7295 85.6303C46.4749 86.3782 46.8477 86.7521 47.5932 87.5Z" fill="white"/>
<path d="M236.198 31.7842C235.825 32.5321 235.453 33.2799 235.08 34.0278C226.134 46.7415 217.561 59.4551 208.616 72.1688C207.497 74.0385 206.379 74.4124 204.515 72.9167C200.043 69.9252 195.197 66.9338 190.351 64.3162C188.488 63.1945 188.115 62.4466 189.233 60.5769C195.943 46.3675 202.652 32.1581 208.988 17.9487C209.734 16.453 210.479 15.7051 212.343 16.453C220.17 20.5662 227.625 24.6795 234.707 29.5406C235.08 30.6624 235.453 31.4103 236.198 31.7842Z" fill="white"/>
<path d="M83.7487 61.3248C84.1215 62.8205 83.0033 63.1944 82.2578 63.5684C77.0395 66.1859 71.8212 68.8034 66.9756 72.1688C65.1119 73.2906 64.3664 72.5427 63.6209 71.047C54.6753 58.3333 45.7296 45.2457 36.7839 32.532C35.6657 31.0363 35.6657 30.2884 37.5294 29.1666C44.6114 24.3055 52.0661 20.1923 59.8936 16.453C61.7573 15.7051 62.5027 16.079 63.2482 17.5748C69.9575 31.7842 76.6667 45.9936 83.376 59.829C83.376 60.5769 83.376 60.9508 83.7487 61.3248Z" fill="white"/>
<path d="M-14.2811 166.026C-6.82641 166.4 1.00106 166.774 8.4558 167.147C11.4377 167.147 12.1832 168.269 12.1832 171.261C12.1832 176.122 12.1832 181.357 12.5559 186.592C12.9286 189.583 11.8104 189.957 9.20128 190.331C-4.58999 191.827 -18.3813 193.323 -31.7998 194.818C-38.8818 195.566 -39.2545 195.566 -39.6273 188.088C-40 181.357 -39.6273 174.626 -40 168.269C-40 165.278 -38.8818 164.53 -36.2726 164.904C-28.8179 165.278 -21.3632 165.652 -14.2811 166.026Z" fill="white"/>
<path d="M124.004 23.1838C124.75 34.0278 125.495 41.5064 126.241 49.359C126.241 51.2286 125.868 51.9765 124.004 52.3504C118.413 52.7244 113.195 53.4722 107.604 54.968C105.367 55.3419 104.622 54.968 104.249 52.7244C100.522 37.3932 96.7945 22.4359 93.0671 7.10471C92.6944 5.23506 93.0671 4.48719 94.9308 4.11326C102.758 2.2436 110.959 1.12181 119.159 0.373945C122.141 1.35303e-05 122.886 1.12181 122.886 3.73933C123.259 11.218 124.004 18.6966 124.004 23.1838Z" fill="white"/>
<path d="M147.859 47.8633C149.35 32.5321 150.841 17.5748 152.332 2.61754C152.705 0.373947 153.078 1.53482e-05 155.314 0.373947C163.142 1.49574 170.969 2.99147 178.797 4.86113C181.406 5.60899 182.151 6.35685 181.406 9.34831C177.306 23.9316 173.206 38.141 169.478 52.7244C168.733 55.3419 167.987 56.0898 165.378 55.3419C160.905 54.2201 156.805 53.4722 152.332 52.7244C148.978 52.3504 146.741 51.2286 147.859 47.8633Z" fill="white"/>
<path d="M205.261 193.323C213.089 195.192 221.289 197.436 229.862 199.306C231.725 199.68 232.098 200.801 231.353 202.671V203.045C229.862 207.906 229.489 213.889 225.762 216.132C222.034 218.376 217.561 213.515 213.088 212.019C208.616 210.524 204.516 208.28 200.043 206.41C198.179 205.662 197.434 204.915 198.552 202.671C199.67 200.053 200.788 197.436 201.534 194.818C202.279 192.949 203.025 192.575 205.261 193.323Z" fill="white"/>
<path d="M231.353 146.581C231.725 148.451 230.607 148.451 229.489 148.825C220.916 151.442 212.716 153.686 204.143 156.303C203.77 156.303 203.397 156.677 203.397 156.677C199.67 154.06 200.415 149.573 198.552 146.207C197.433 144.712 198.552 143.964 200.043 143.216C207.87 139.476 215.325 135.737 223.152 131.998C223.898 131.624 225.016 130.502 225.761 131.998C228.371 136.859 229.862 141.72 231.353 146.581Z" fill="white"/>
<path d="M205.634 103.579C206.379 104.327 207.125 104.701 207.87 105.449C210.852 109.188 215.697 112.553 216.443 116.667C217.188 121.528 210.479 122.65 206.752 125.641C203.024 129.006 198.924 131.25 194.824 134.241C192.961 135.737 192.215 135.363 191.097 133.494C189.233 130.502 184.76 128.259 185.133 125.267C185.506 122.276 189.606 120.032 192.215 117.415C195.942 113.675 199.67 109.562 203.397 105.823C204.143 105.075 204.888 104.327 205.634 103.579Z" fill="white"/>
<path d="M217.189 232.959C216.07 234.455 214.952 235.951 213.834 237.447C206.379 247.169 206.379 247.169 197.806 238.568C193.706 234.455 189.606 230.716 185.506 226.977C184.015 225.481 184.015 224.733 185.506 222.863C192.588 214.637 192.588 214.637 201.534 220.62C206.006 223.611 210.479 226.976 215.325 229.968C215.698 230.716 216.816 231.464 217.189 232.959Z" fill="white"/>
<path d="M86.3577 225.481C85.985 225.855 85.6122 226.603 84.8668 226.977C78.903 232.959 72.9392 238.942 67.3481 245.299C65.8572 246.795 64.739 247.169 63.248 245.299C59.8934 241.934 55.0478 238.568 54.6751 234.455C54.3023 229.968 61.0116 228.472 64.3662 225.481C68.0936 222.489 71.821 219.872 75.9211 216.88C76.6665 216.506 77.412 215.759 78.1575 215.385C78.1575 215.385 86.3577 224.733 86.3577 225.481Z" fill="white"/>
<path d="M220.543 181.357C216.07 180.983 211.225 181.731 206.752 180.235C201.161 178.365 205.634 173.13 204.143 169.765C203.397 167.895 204.143 166.773 206.752 166.773C214.952 166.026 223.152 165.278 230.98 164.156C233.589 163.782 235.08 164.156 234.707 167.147C234.707 170.887 235.08 175 235.08 178.739C235.08 181.357 234.334 182.479 231.353 182.105C227.998 181.731 224.271 181.731 220.543 181.357Z" fill="white"/>
<path d="M191.842 256.517C192.215 258.013 190.724 258.387 189.979 258.761C186.251 261.004 182.524 262.874 178.797 265.118C176.933 266.239 176.188 265.865 175.069 263.996C171.342 256.143 167.987 248.291 164.26 240.438C163.514 238.568 163.514 237.821 165.378 237.073C166.124 236.699 166.869 236.325 167.242 235.951C169.851 234.829 172.46 231.464 174.697 232.212C176.933 233.333 178.424 236.699 179.915 239.316C183.27 244.177 186.624 249.038 189.979 253.9C190.724 255.395 191.47 256.143 191.842 256.517Z" fill="white"/>
<path d="M44.6113 133.868C45.3568 134.241 46.1022 134.615 47.2205 134.989C54.3025 137.981 61.3845 141.346 68.4665 143.964C71.8211 145.085 71.8211 146.581 70.7029 149.573C67.3482 158.173 67.3482 158.173 58.4026 155.93C52.4388 154.434 46.475 152.938 40.5112 151.816C38.6475 151.442 37.5293 150.694 38.2748 148.451C39.7657 143.964 41.2567 139.85 42.7476 135.363C42.7476 134.241 43.1203 133.494 44.6113 133.868Z" fill="white"/>
<path d="M91.5761 265.491C86.7305 263.248 81.8849 260.256 77.4121 256.891C76.2939 256.143 77.7848 255.021 78.1576 254.273C83.0031 247.169 87.8487 240.438 92.6943 233.333C93.8125 231.838 94.9307 231.09 96.4217 232.585C96.7944 232.959 97.5399 233.333 97.9126 233.707C105.367 238.568 105.367 238.568 101.64 246.795C99.0308 252.404 96.4217 257.639 93.8125 263.248C93.067 264.37 93.067 265.491 91.5761 265.491Z" fill="white"/>
<path d="M140.032 248.291C139.287 245.299 140.405 243.803 143.387 243.803C146.741 244.177 150.469 240.812 152.705 243.056C154.569 244.925 154.569 249.038 155.314 252.03C156.805 257.639 157.923 263.248 159.414 268.857C160.16 271.1 159.787 272.596 157.178 272.97C153.078 273.718 148.605 274.466 144.505 275.214C142.268 275.588 141.896 274.466 141.523 272.596C141.523 264.37 140.777 256.517 140.032 248.291Z" fill="white"/>
<path d="M122.886 274.84C117.668 273.718 113.94 272.97 110.213 272.222C107.977 271.848 107.231 270.727 107.977 268.483C110.213 260.63 112.449 252.778 114.313 244.925C115.059 242.682 115.804 241.56 118.413 242.682C119.904 243.056 121.395 243.43 122.886 243.803C128.85 244.925 128.85 244.925 128.104 250.534C127.359 257.639 126.241 264.37 125.868 271.474C125.495 274.466 124.75 275.962 122.886 274.84Z" fill="white"/>
<path d="M34.5474 177.244C34.1746 168.643 34.1746 168.643 41.6294 169.017C48.7114 169.391 55.4206 169.765 62.5026 170.139C65.1118 170.139 65.8573 171.261 65.4845 173.504C64.7391 176.87 67.721 180.983 64.7391 183.226C62.5026 185.096 58.4025 184.348 55.4206 184.722C50.2023 185.47 44.6113 185.844 39.3929 186.592C36.411 186.966 34.9201 186.592 34.9201 183.226C34.9201 180.609 34.5474 178.365 34.5474 177.244Z" fill="white"/>
<path d="M66.9755 193.697C69.5847 196.314 69.5847 200.427 71.4483 203.419C72.1938 204.915 72.1938 206.036 70.7029 206.784C62.5027 210.524 54.6752 214.637 46.8477 218.75C44.984 219.498 44.2385 218.376 43.8658 217.254C42.3749 213.141 40.8839 209.402 39.393 205.288C39.0202 204.167 38.6475 202.671 40.5112 202.297C49.0841 198.932 57.6571 196.314 66.9755 193.697Z" fill="white"/>
<path d="M176.188 118.536C172.46 116.293 169.106 114.049 165.378 111.806C165.378 111.806 165.751 110.31 166.124 109.562C169.478 102.083 173.206 94.6047 176.56 86.7522C177.678 84.5086 178.797 84.1346 181.033 85.2564C184.388 87.5 188.115 89.7436 191.843 91.6133C193.333 92.7351 193.706 93.4829 192.588 94.9786C187.37 102.083 182.524 109.562 177.679 116.667C177.306 117.415 176.56 117.788 176.188 118.536Z" fill="white"/>
<path d="M85.6123 125.267C84.1213 127.137 82.2576 128.632 81.1394 130.876C78.903 134.989 76.6666 135.363 72.9392 132.372C66.9754 127.885 61.0116 123.771 54.6751 119.658C52.8114 118.536 52.0659 117.415 53.9296 115.545C56.5388 112.553 59.1479 109.188 61.7571 105.823C62.8753 104.327 63.9935 103.953 65.4845 105.449C71.4483 111.432 77.7848 117.415 83.7486 123.023C84.4941 123.771 84.8668 124.519 85.6123 125.267Z" fill="white"/>
<path d="M91.9488 83.7607C94.558 83.3867 94.558 84.5085 94.9307 85.6303C98.6581 93.4829 102.385 101.335 106.113 109.188C106.858 110.684 106.858 111.806 105.367 112.179C104.995 112.179 104.995 112.553 104.622 112.553C101.64 113.675 98.6581 117.788 95.6762 116.667C93.067 115.545 91.5761 111.806 89.7124 109.188C86.3578 104.327 83.0031 99.4658 79.6485 94.9786C78.1575 93.109 78.5303 91.9872 80.394 90.8654C84.4941 87.8739 88.5942 85.6303 91.9488 83.7607Z" fill="white"/>
<path d="M147.86 74.7863C152.705 75.9081 156.06 76.656 159.787 77.0299C162.024 77.4039 163.142 78.1517 162.396 80.7692C160.16 88.6218 157.923 96.4744 156.06 104.327C155.314 106.944 154.569 107.318 151.587 106.571C142.641 104.327 142.641 104.327 143.387 95.3526C143.759 89.7436 144.505 83.7607 144.878 78.1517C145.25 75.5342 145.996 73.6645 147.86 74.7863Z" fill="white"/>
<path d="M130.341 100.588C131.459 104.327 129.595 105.449 125.122 105.823C118.04 106.197 118.04 106.571 116.177 99.4658C114.686 93.109 113.195 86.7522 111.331 80.3953C110.586 77.7778 110.958 76.656 113.94 76.2821C117.668 75.9082 121.768 75.1603 125.495 74.4124C127.732 74.0385 128.477 74.7864 128.85 77.4039C128.85 84.8825 129.595 92.3611 130.341 100.588Z" fill="white"/>
</g>
<defs>
<clipPath id="clip0_92_22993">
<rect width="350" height="350" fill="white" transform="translate(-40)"/>
</clipPath>
</defs>
</svg>
