<svg width="138" height="114" viewBox="0 0 138 114" fill="none" xmlns="http://www.w3.org/2000/svg">
<g opacity="0.5" clip-path="url(#clip0_92_23175)">
<path d="M125.655 84.5128C125.508 84.6602 125.361 84.9551 125.214 85.1025C123.304 87.7564 121.246 90.2628 119.042 92.6218C118.307 93.3589 117.866 93.5064 117.131 92.7692C112.869 88.4936 108.46 84.3654 104.051 80.0897C103.463 79.5 103.316 79.2051 104.051 78.4679C105.668 76.8461 107.137 75.2243 108.313 73.3077C108.754 72.5705 109.195 72.5705 109.783 73.0128C114.78 76.5513 119.776 79.9423 124.92 83.3333C125.214 83.7756 125.655 83.923 125.655 84.5128Z" fill="white"/>
<path d="M125.214 4.89741C125.214 5.33972 124.773 5.48715 124.479 5.78203C119.482 9.46792 114.486 13.0064 109.489 16.6923C108.901 17.1346 108.46 17.1346 108.019 16.3974C106.696 14.4807 105.227 12.7115 103.61 11.0897C103.022 10.5 103.169 10.2051 103.61 9.61536C108.019 5.19228 112.281 0.769204 116.69 -3.65387C117.131 -4.09618 117.425 -4.24362 118.013 -3.65387C120.511 -1.14746 122.716 1.50638 124.773 4.4551C125.067 4.60254 125.214 4.74997 125.214 4.89741Z" fill="white"/>
<path d="M135.795 62.3974C135.795 62.5448 135.649 62.6923 135.649 62.9871C134.767 66.2307 133.738 69.3269 132.415 72.2756C132.121 73.0128 131.827 73.3077 130.946 73.0128C125.361 70.5064 119.776 68.1474 114.192 65.7884C113.31 65.4936 113.163 65.0512 113.604 64.1666C114.486 62.1025 115.22 60.0384 115.808 57.8269C115.955 57.0897 116.249 56.9423 116.984 57.0897C123.01 58.5641 128.888 60.0384 134.914 61.5128C135.355 61.6602 135.942 61.5128 135.795 62.3974Z" fill="white"/>
<path d="M35.2715 79.9423C34.9776 80.2372 34.8306 80.5321 34.5367 80.6795C30.4217 84.9551 26.3066 89.2308 22.1916 93.5064C21.3098 94.391 20.8689 94.5385 19.8402 93.5064C17.6357 91.1474 15.5782 88.7885 13.6677 86.2821C13.0798 85.5449 13.2268 85.25 13.9616 84.6603C18.9584 81.1218 23.8082 77.4359 28.6581 73.8974C29.099 73.6026 29.5399 73.1603 29.9808 73.8974C31.4504 75.8141 32.9201 77.7308 34.6836 79.3526C34.9776 79.5 35.1245 79.7949 35.2715 79.9423Z" fill="white"/>
<path d="M116.396 31.8782C115.808 32.0257 115.661 31.5834 115.514 31.1411C114.927 28.9295 114.045 26.8654 113.016 24.8013C112.575 24.0641 113.016 23.6218 113.604 23.327C119.042 20.6731 124.626 18.0193 130.064 15.3654C130.799 14.9231 131.24 15.0706 131.534 15.9552C132.856 19.0513 134.032 22.1475 135.061 25.3911C135.355 26.2757 135.061 26.5706 134.179 26.8654C128.447 28.4872 122.569 30.2565 116.837 31.8782C116.69 31.7308 116.543 31.7308 116.396 31.8782Z" fill="white"/>
<path d="M96.556 84.9551C96.9969 84.9551 97.1439 85.3974 97.4378 85.6923C100.965 90.7051 104.345 95.7179 107.872 100.731C108.313 101.468 108.313 101.763 107.578 102.205C104.786 103.974 101.847 105.744 98.9074 107.218C98.1726 107.66 97.7317 107.513 97.2908 106.628C94.7924 101.026 92.1471 95.5705 89.5017 89.9679C89.2078 89.3782 88.9138 88.9358 89.7956 88.641C92.0001 87.6089 94.0576 86.4294 96.1151 85.1025C96.1151 85.1025 96.409 85.1025 96.556 84.9551Z" fill="white"/>
<path d="M48.2045 89.2308C48.0576 89.5256 47.9106 89.8205 47.9106 89.968C45.4122 95.4231 42.7668 100.731 40.2684 106.186C39.6806 107.365 39.2397 107.365 38.2109 106.776C35.4186 105.301 32.6263 103.679 29.9809 101.91C29.2461 101.468 29.0991 101.026 29.687 100.288C33.2141 95.2756 36.7413 90.2628 40.1215 85.25C40.5624 84.6603 40.8563 84.3654 41.5911 84.9551C43.5016 86.2821 45.4122 87.4615 47.4697 88.4936C47.9106 88.641 48.2045 88.7885 48.2045 89.2308Z" fill="white"/>
<path d="M75.099 113.853C74.2172 114.147 73.9233 113.41 73.9233 112.526C73.4824 106.481 73.0415 100.436 72.6006 94.391C72.6006 93.6538 72.7475 93.3589 73.4824 93.3589C75.8338 93.2115 78.0383 92.7692 80.2428 92.3269C80.9776 92.1795 81.2715 92.3269 81.4185 93.0641C82.8881 99.1089 84.3578 105.006 85.8274 111.051C86.1214 112.083 85.6805 112.231 84.9456 112.378C81.7124 112.968 78.4792 113.41 75.099 113.853Z" fill="white"/>
<path d="M64.2236 94.5384C63.6358 100.583 63.0479 106.628 62.46 112.821C62.46 113.558 62.1661 113.853 61.2843 113.705C57.9041 113.263 54.6709 112.673 51.4377 111.936C50.4089 111.641 50.4089 111.199 50.5559 110.314C52.1725 104.564 53.7891 98.8141 55.2588 93.0641C55.4057 92.3269 55.6997 91.8846 56.7284 92.032C58.7859 92.4743 60.9904 92.9167 63.0479 93.359C64.0767 93.359 64.5176 93.6538 64.2236 94.5384Z" fill="white"/>
<path d="M2.05741 28.0449C3.08616 24.2116 4.11491 20.968 5.58456 17.7244C5.87849 17.1347 6.02546 17.1347 6.61332 17.2821C12.3449 19.7885 18.0766 22.2949 23.9552 24.6539C24.69 24.9488 24.69 25.3911 24.3961 25.9808C23.5143 28.0449 22.7794 30.109 22.1916 32.3206C22.0446 33.0577 21.6037 33.2052 20.8689 33.0577C14.9903 31.5834 9.11172 30.2565 3.23313 28.7821C2.64527 28.6347 1.76348 28.6347 2.05741 28.0449Z" fill="white"/>
<path d="M21.7508 58.4166C22.3387 58.4166 22.4856 58.7115 22.6326 59.1538C23.3674 61.3653 24.1022 63.5769 25.131 65.4935C25.5719 66.2307 25.131 66.5256 24.5431 66.8205C18.9585 69.4743 13.5208 72.2756 7.9361 74.9294C7.34824 75.2243 6.90735 75.2243 6.61342 74.4871C5.14377 71.391 3.96805 68.1474 2.9393 64.9038C2.64537 64.1666 2.93929 63.8718 3.67412 63.5769C9.55271 61.8077 15.4313 60.0384 21.4569 58.4166C21.4569 58.4166 21.6038 58.4166 21.7508 58.4166Z" fill="white"/>
<path d="M127.712 48.9808C124.773 48.8334 121.687 48.5385 118.748 48.5385C117.572 48.5385 117.278 48.0962 117.425 46.9167C117.425 44.8526 117.425 42.936 117.278 40.8719C117.131 39.8398 117.425 39.3975 118.454 39.3975C123.303 38.9552 128.3 38.3654 133.15 37.7757C133.444 37.7757 133.885 37.7757 134.179 37.6283C137.706 37.186 137.706 37.186 137.853 40.577C138 43.0834 137.853 45.4424 137.853 47.9488C137.853 48.9808 137.559 49.4231 136.383 49.2757C133.591 49.2757 130.652 49.2757 127.712 48.9808Z" fill="white"/>
<path d="M34.5367 10.5C34.2428 10.7949 34.0958 10.9424 33.9489 11.2372C32.4792 13.0065 31.1565 14.6282 29.6869 16.3975C29.099 17.1347 28.8051 16.9872 28.0703 16.5449C23.0735 13.0065 18.2236 9.61543 13.2268 6.2244C12.345 5.63466 12.345 5.19235 12.9329 4.45517C14.8434 1.80132 16.9009 -0.705085 19.1054 -3.06406C19.8402 -3.80124 20.1342 -3.80124 20.869 -3.06406C24.1022 0.179531 27.3355 3.27569 30.5687 6.51928C31.5974 7.55133 32.7732 8.58338 33.8019 9.76286C34.0958 10.0577 34.2428 10.2052 34.5367 10.5Z" fill="white"/>
<path d="M108.901 -11.468C108.754 -11.1731 108.607 -10.8782 108.46 -10.5834C104.933 -5.57055 101.553 -0.557734 98.0257 4.45509C97.5848 5.19227 97.1439 5.3397 96.4091 4.74996C94.6455 3.57047 92.7349 2.39099 90.8244 1.35893C90.0896 0.916628 89.9426 0.621756 90.3835 -0.115423C93.0289 -5.71799 95.6742 -11.3206 98.1726 -16.9231C98.4666 -17.5129 98.7605 -17.8077 99.4953 -17.5129C102.582 -15.8911 105.521 -14.2693 108.313 -12.3526C108.46 -11.9103 108.607 -11.6154 108.901 -11.468Z" fill="white"/>
<path d="M48.7923 0.179464C48.9393 0.769209 48.4984 0.916645 48.2045 1.06408C46.147 2.09613 44.0895 3.12818 42.1789 4.45511C41.4441 4.89741 41.1502 4.60254 40.8562 4.0128C37.3291 -1.00002 33.8019 -6.16028 30.2748 -11.1731C29.8339 -11.7628 29.8339 -12.0577 30.5687 -12.5C33.361 -14.4167 36.3003 -16.0385 39.3866 -17.5128C40.1214 -17.8077 40.4153 -17.6603 40.7093 -17.0705C43.3546 -11.468 46 -5.86541 48.6454 -0.410278C48.6454 -0.115406 48.6454 0.0320301 48.7923 0.179464Z" fill="white"/>
<path d="M10.1406 41.4616C13.0799 41.609 16.1661 41.7565 19.1054 41.9039C20.2812 41.9039 20.5751 42.3462 20.5751 43.5257C20.5751 45.4424 20.5751 47.5065 20.722 49.5706C20.869 50.7501 20.4281 50.8975 19.3994 51.0449C13.9617 51.6347 8.52396 52.2244 3.23323 52.8142C0.440895 53.109 0.29393 53.109 0.146965 50.1603C0 47.5065 0.146965 44.8526 0 42.3462C0 41.1667 0.440895 40.8718 1.46965 41.0193C4.40895 41.1667 7.34824 41.3142 10.1406 41.4616Z" fill="white"/>
<path d="M96.7029 52.2244C99.7891 52.9616 103.022 53.8462 106.403 54.5834C107.137 54.7308 107.284 55.1731 106.99 55.9103V56.0577C106.403 57.9744 106.256 60.3334 104.786 61.218C103.316 62.1026 101.553 60.186 99.7891 59.5962C98.0255 59.0065 96.4089 58.1219 94.6454 57.3847C93.9105 57.0898 93.6166 56.7949 94.0575 55.9103C94.4984 54.8783 94.9393 53.8462 95.2332 52.8142C95.5271 52.077 95.8211 51.9295 96.7029 52.2244Z" fill="white"/>
<path d="M106.99 33.7949C107.137 34.5321 106.697 34.5321 106.256 34.6795C102.875 35.7115 99.6422 36.5962 96.262 37.6282C96.115 37.6282 95.9681 37.7756 95.9681 37.7756C94.4984 36.7436 94.7924 34.9744 94.0575 33.6474C93.6166 33.0577 94.0575 32.7628 94.6454 32.4679C97.7317 30.9936 100.671 29.5192 103.757 28.0449C104.051 27.8974 104.492 27.4551 104.786 28.0449C105.815 29.9615 106.403 31.8782 106.99 33.7949Z" fill="white"/>
<path d="M96.8498 16.8397C97.1437 17.1346 97.4376 17.282 97.7316 17.5769C98.9073 19.0513 100.818 20.3782 101.112 22C101.406 23.9166 98.7603 24.3589 97.2907 25.5384C95.821 26.8654 94.2044 27.75 92.5878 28.9295C91.853 29.5192 91.559 29.3718 91.1181 28.6346C90.3833 27.4551 88.6197 26.5705 88.7667 25.391C88.9137 24.2115 90.5303 23.3269 91.559 22.2948C93.0287 20.8205 94.4983 19.1987 95.968 17.7243C96.2619 17.4295 96.5558 17.1346 96.8498 16.8397Z" fill="white"/>
<path d="M101.406 67.8526C100.965 68.4424 100.524 69.0321 100.083 69.6219C97.1438 73.4552 97.1438 73.4552 93.7636 70.0642C92.147 68.4424 90.5304 66.968 88.9138 65.4936C88.3259 64.9039 88.3259 64.609 88.9138 63.8718C91.7061 60.6283 91.7061 60.6283 95.2333 62.9872C96.9969 64.1667 98.7604 65.4936 100.671 66.6731C100.818 66.968 101.259 67.2629 101.406 67.8526Z" fill="white"/>
<path d="M49.8211 64.9039C49.6742 65.0513 49.5272 65.3462 49.2333 65.4936C46.8818 67.8526 44.5304 70.2116 42.3259 72.718C41.7381 73.3077 41.2972 73.4551 40.7093 72.718C39.3866 71.391 37.4761 70.0641 37.3291 68.4423C37.1822 66.6731 39.8275 66.0834 41.1502 64.9039C42.6199 63.7244 44.0895 62.6923 45.7061 61.5128C46 61.3654 46.294 61.0705 46.5879 60.9231C46.5879 60.9231 49.8211 64.609 49.8211 64.9039Z" fill="white"/>
<path d="M102.729 47.5064C100.965 47.3589 99.0544 47.6538 97.2908 47.064C95.0864 46.3269 96.8499 44.2628 96.2621 42.9358C95.9681 42.1987 96.2621 41.7564 97.2908 41.7564C100.524 41.4615 103.757 41.1666 106.844 40.7243C107.872 40.5769 108.46 40.7243 108.313 41.9038C108.313 43.3781 108.46 44.9999 108.46 46.4743C108.46 47.5064 108.166 47.9487 106.991 47.8012C105.668 47.6538 104.198 47.6538 102.729 47.5064Z" fill="white"/>
<path d="M91.4121 77.141C91.559 77.7308 90.9712 77.8782 90.6772 78.0257C89.2076 78.9103 87.7379 79.6475 86.2683 80.5321C85.5335 80.9744 85.2395 80.8269 84.7986 80.0898C83.329 76.9936 82.0063 73.8975 80.5367 70.8013C80.2427 70.0641 80.2427 69.7692 80.9776 69.4744C81.2715 69.3269 81.5654 69.1795 81.7124 69.0321C82.7411 68.5898 83.7699 67.2628 84.6517 67.5577C85.5335 68 86.1213 69.3269 86.7092 70.359C88.0319 72.2757 89.3546 74.1923 90.6772 76.109C90.9712 76.6987 91.2651 76.9936 91.4121 77.141Z" fill="white"/>
<path d="M33.361 28.782C33.6549 28.9294 33.9488 29.0769 34.3897 29.2243C37.1821 30.4038 39.9744 31.7307 42.7667 32.7628C44.0894 33.2051 44.0894 33.7948 43.6485 34.9743C42.3258 38.3653 42.3258 38.3653 38.7987 37.4807C36.4472 36.891 34.0958 36.3012 31.7444 35.8589C31.0095 35.7115 30.5686 35.4166 30.8626 34.532C31.4504 32.7628 32.0383 31.141 32.6262 29.3718C32.6262 28.9294 32.7731 28.6346 33.361 28.782Z" fill="white"/>
<path d="M51.8786 80.6795C49.9681 79.7949 48.0575 78.6154 46.2939 77.2885C45.853 76.9936 46.4409 76.5513 46.5879 76.2564C48.4984 73.4551 50.409 70.8013 52.3195 68C52.7604 67.4103 53.2013 67.1154 53.7891 67.7051C53.9361 67.8526 54.23 68 54.377 68.1474C57.3163 70.0641 57.3163 70.0641 55.8467 73.3077C54.8179 75.5192 53.7892 77.5833 52.7604 79.7949C52.4665 80.2372 52.4665 80.6795 51.8786 80.6795Z" fill="white"/>
<path d="M70.9839 73.8974C70.69 72.7179 71.1309 72.1282 72.3066 72.1282C73.6293 72.2756 75.0989 70.9487 75.9807 71.8333C76.7156 72.5705 76.7156 74.1923 77.0095 75.3718C77.5974 77.5833 78.0382 79.7948 78.6261 82.0064C78.92 82.891 78.7731 83.4807 77.7443 83.6282C76.1277 83.923 74.3641 84.2179 72.7475 84.5128C71.8657 84.6602 71.7188 84.2179 71.5718 83.4807C71.5718 80.2371 71.2779 77.141 70.9839 73.8974Z" fill="white"/>
<path d="M64.2237 84.3653C62.1662 83.923 60.6965 83.6282 59.2269 83.3333C58.3451 83.1859 58.0512 82.7435 58.3451 81.8589C59.2269 78.7628 60.1087 75.6666 60.8435 72.5705C61.1374 71.6858 61.4313 71.2435 62.4601 71.6858C63.048 71.8333 63.6358 71.9807 64.2237 72.1281C66.5751 72.5705 66.5751 72.5705 66.2812 74.782C65.9873 77.5833 65.5464 80.2371 65.3994 83.0384C65.2524 84.2179 64.9585 84.8076 64.2237 84.3653Z" fill="white"/>
<path d="M29.393 45.8846C29.2461 42.4935 29.2461 42.4935 32.1854 42.641C34.9777 42.7884 37.6231 42.9358 40.4154 43.0833C41.4442 43.0833 41.7381 43.5256 41.5911 44.4102C41.2972 45.7371 42.4729 47.3589 41.2972 48.2435C40.4154 48.9807 38.7988 48.6858 37.6231 48.8333C35.5656 49.1281 33.3611 49.2756 31.3036 49.5705C30.1279 49.7179 29.54 49.5705 29.54 48.2435C29.54 47.2115 29.393 46.3269 29.393 45.8846Z" fill="white"/>
<path d="M42.179 52.3718C43.2077 53.4039 43.2077 55.0257 43.9426 56.2052C44.2365 56.7949 44.2365 57.2372 43.6486 57.5321C40.4154 59.0064 37.3291 60.6282 34.2429 62.25C33.5081 62.5449 33.2141 62.1026 33.0672 61.6603C32.4793 60.0385 31.8914 58.5641 31.3036 56.9423C31.1566 56.5 31.0097 55.9103 31.7445 55.7629C35.1247 54.4359 38.5049 53.4039 42.179 52.3718Z" fill="white"/>
<path d="M85.2395 22.7372C83.7699 21.8526 82.4472 20.968 80.9775 20.0834C80.9775 20.0834 81.1245 19.4936 81.2715 19.1988C82.5942 16.25 84.0638 13.3013 85.3865 10.2052C85.8274 9.32055 86.2683 9.17312 87.1501 9.61542C88.4727 10.5 89.9424 11.3847 91.412 12.1218C91.9999 12.5641 92.1469 12.859 91.706 13.4488C89.6485 16.25 87.7379 19.1988 85.8274 22C85.6804 22.2949 85.3865 22.4424 85.2395 22.7372Z" fill="white"/>
<path d="M49.527 25.3911C48.9392 26.1283 48.2043 26.718 47.7635 27.6026C46.8817 29.2244 45.9999 29.3718 44.5302 28.1924C42.1788 26.4231 39.8273 24.8013 37.3289 23.1795C36.5941 22.7372 36.3002 22.2949 37.035 21.5577C38.0638 20.3782 39.0925 19.0513 40.1213 17.7244C40.5622 17.1347 41.0031 16.9872 41.5909 17.577C43.9424 19.9359 46.4408 22.2949 48.7922 24.5065C49.0861 24.8013 49.2331 25.0962 49.527 25.3911Z" fill="white"/>
<path d="M52.0256 9.02562C53.0543 8.87819 53.0543 9.3205 53.2013 9.7628C54.6709 12.859 56.1406 15.9551 57.6102 19.0513C57.9042 19.641 57.9042 20.0833 57.3163 20.2308C57.1693 20.2308 57.1693 20.3782 57.0224 20.3782C55.8467 20.8205 54.6709 22.4423 53.4952 22C52.4665 21.5577 51.8786 20.0833 51.1438 19.0513C49.8211 17.1346 48.4984 15.2179 47.1757 13.4487C46.5879 12.7115 46.7348 12.2692 47.4697 11.8269C49.0863 10.6474 50.7029 9.7628 52.0256 9.02562Z" fill="white"/>
<path d="M74.0702 5.48715C75.9808 5.92946 77.3034 6.22433 78.7731 6.37177C79.6549 6.5192 80.0958 6.81407 79.8018 7.84613C78.92 10.9423 78.0383 14.0384 77.3034 17.1346C77.0095 18.1666 76.7156 18.3141 75.5399 18.0192C72.0127 17.1346 72.0127 17.1346 72.3066 13.5961C72.4536 11.3846 72.7475 9.02561 72.8945 6.81407C73.0415 5.78202 73.3354 5.04484 74.0702 5.48715Z" fill="white"/>
<path d="M67.1629 15.6603C67.6038 17.1347 66.8689 17.577 65.1054 17.7244C62.313 17.8718 62.313 18.0193 61.5782 15.218C60.9903 12.7116 60.4025 10.2052 59.6677 7.69877C59.3737 6.66672 59.5207 6.22441 60.6964 6.07697C62.1661 5.92954 63.7827 5.63467 65.2523 5.3398C66.1341 5.19236 66.428 5.48723 66.575 6.51928C66.575 9.468 66.8689 12.4167 67.1629 15.6603Z" fill="white"/>
</g>
<defs>
<clipPath id="clip0_92_23175">
<rect width="138" height="138" fill="white" transform="translate(0 -24)"/>
</clipPath>
</defs>
</svg>
