<svg width="221" height="34" viewBox="0 0 221 34" fill="none" xmlns="http://www.w3.org/2000/svg">
<path fill-rule="evenodd" clip-rule="evenodd" d="M19.8983 4.90721L16.6805 14.5843L17.4735 14.731L20.6912 5.05418L19.8983 4.90721ZM16.6805 14.5843C16.6582 14.6341 16.6472 14.6883 16.6481 14.7429C16.6491 14.7976 16.6621 14.8513 16.6861 14.9003C16.7102 14.9492 16.7447 14.9921 16.7871 15.0258C16.8296 15.0594 16.8789 15.0831 16.9315 15.095C17.0494 15.1069 17.1677 15.0772 17.2664 15.0109C17.3652 14.9446 17.4383 14.8457 17.4735 14.731L16.6805 14.5843ZM20.6912 5.05418C20.7135 5.00439 20.7246 4.95019 20.7236 4.89551C20.7227 4.84083 20.7097 4.78706 20.6856 4.73812C20.6616 4.68918 20.6271 4.6463 20.5846 4.61261C20.5422 4.57892 20.4928 4.55526 20.4402 4.54336C20.3224 4.5314 20.2041 4.5611 20.1053 4.62745C20.0066 4.6938 19.9334 4.79273 19.8983 4.90749L20.6912 5.05418Z" fill="#125BA8"/>
<path fill-rule="evenodd" clip-rule="evenodd" d="M25.4244 9.08494L16.8533 14.4265L17.2019 15.1557L25.7729 9.81413L25.4244 9.08494ZM16.8533 14.4265C16.7537 14.4848 16.6782 14.5777 16.6406 14.6881C16.6031 14.7984 16.6061 14.9188 16.649 15.0271C16.6743 15.0752 16.7095 15.1172 16.7523 15.1504C16.795 15.1835 16.8442 15.207 16.8966 15.2192C16.949 15.2314 17.0034 15.232 17.0561 15.2211C17.1088 15.2101 17.1585 15.1878 17.202 15.1557L16.8533 14.4265ZM25.7729 9.81413C25.8724 9.75568 25.9478 9.66276 25.9853 9.55244C26.0227 9.44211 26.0197 9.32179 25.9767 9.21356C25.9514 9.16541 25.9162 9.12334 25.8735 9.09018C25.8307 9.05702 25.7815 9.03355 25.7291 9.02136C25.6767 9.00917 25.6223 9.00853 25.5696 9.0195C25.5169 9.03047 25.4671 9.05278 25.4237 9.08494L25.7729 9.81413Z" fill="#04830A"/>
<path fill-rule="evenodd" clip-rule="evenodd" d="M26.0641 10.436L17.468 15.7505L17.9824 16.3799L26.5785 11.0655L26.0641 10.436ZM17.468 15.7505C17.4194 15.7741 17.3765 15.8084 17.3427 15.8509C17.3088 15.8934 17.2847 15.9431 17.2721 15.9963C17.2595 16.0495 17.2588 16.1048 17.27 16.1583C17.2812 16.2118 17.304 16.2621 17.3367 16.3055C17.4194 16.3915 17.5288 16.4459 17.6465 16.4595C17.7641 16.4731 17.8828 16.445 17.9824 16.3801L17.468 15.7505ZM26.5785 11.0655C26.6271 11.0419 26.67 11.0077 26.7039 10.9652C26.7378 10.9227 26.7619 10.873 26.7745 10.8199C26.7871 10.7667 26.7878 10.7113 26.7766 10.6578C26.7654 10.6043 26.7426 10.554 26.7099 10.5106C26.6272 10.4246 26.5177 10.3702 26.4001 10.3566C26.2824 10.343 26.1637 10.3711 26.0641 10.436L26.5785 11.0655Z" fill="#F0A631"/>
<path fill-rule="evenodd" clip-rule="evenodd" d="M27.6498 17.24L17.6998 15.7425L17.5048 16.5283L27.4548 18.0259L27.6498 17.24ZM17.6998 15.7425C17.5865 15.7222 17.4698 15.7441 17.3711 15.8041C17.2725 15.8642 17.1985 15.9583 17.1627 16.0692C17.1517 16.1226 17.152 16.1778 17.1637 16.231C17.1754 16.2842 17.1983 16.3343 17.2307 16.3778C17.2631 16.4213 17.3044 16.4573 17.3516 16.4833C17.3989 16.5092 17.4511 16.5246 17.5048 16.5283L17.6998 15.7425ZM27.4548 18.0259C27.5681 18.0462 27.6848 18.0243 27.7835 17.9643C27.8822 17.9042 27.9562 17.8101 27.9919 17.6991C28.0029 17.6457 28.0026 17.5906 27.9909 17.5373C27.9792 17.4841 27.9563 17.434 27.9239 17.3905C27.8915 17.347 27.8502 17.3111 27.803 17.2851C27.7557 17.2591 27.7035 17.2438 27.6498 17.24L27.4548 18.0259Z" fill="#125BA8"/>
<path fill-rule="evenodd" clip-rule="evenodd" d="M27.2849 18.6923L17.3327 17.1576L17.328 17.9752L27.2795 19.5105L27.2849 18.6923ZM17.3327 17.1576C17.2805 17.144 17.226 17.1423 17.1731 17.1528C17.1202 17.1632 17.0702 17.1855 17.0269 17.2181C16.9836 17.2506 16.948 17.2925 16.9227 17.3408C16.8973 17.3891 16.883 17.4425 16.8806 17.4971C16.8894 17.6169 16.9387 17.73 17.0203 17.8171C17.1018 17.9042 17.2105 17.9601 17.328 17.9752L17.3327 17.1576ZM27.2795 19.5105C27.3317 19.5242 27.3862 19.5258 27.4391 19.5153C27.492 19.5048 27.5419 19.4825 27.5853 19.45C27.6286 19.4174 27.6642 19.3755 27.6895 19.3272C27.7148 19.2789 27.7292 19.2255 27.7316 19.1709C27.7228 19.0511 27.6734 18.9381 27.5919 18.851C27.5104 18.7638 27.4017 18.708 27.2842 18.6928L27.2795 19.5105Z" fill="#04830A"/>
<path fill-rule="evenodd" clip-rule="evenodd" d="M24.1884 24.9383L17.5149 17.3028L16.8675 17.7776L23.541 25.4131L24.1884 24.9383ZM17.5149 17.3028C17.441 17.2134 17.3377 17.154 17.2241 17.1357C17.1105 17.1173 16.9942 17.1412 16.8965 17.2029C16.8542 17.2365 16.8195 17.279 16.7947 17.3274C16.7699 17.3758 16.7557 17.4291 16.7529 17.4835C16.7502 17.538 16.759 17.5925 16.7788 17.6432C16.7985 17.6939 16.8288 17.7398 16.8675 17.7776L17.5149 17.3028ZM23.541 25.4134C23.6149 25.5028 23.7181 25.5622 23.8317 25.5806C23.9454 25.599 24.0617 25.5751 24.1594 25.5134C24.2017 25.4797 24.2364 25.4373 24.2612 25.3889C24.2859 25.3404 24.3001 25.2872 24.3029 25.2327C24.3056 25.1783 24.2968 25.1238 24.2771 25.0731C24.2573 25.0224 24.2271 24.9765 24.1884 24.9387L23.541 25.4134Z" fill="#F0A631"/>
<path fill-rule="evenodd" clip-rule="evenodd" d="M22.9878 25.8123L16.3364 18.1468L15.8147 18.7701L22.4661 26.4356L22.9878 25.8123ZM16.3364 18.1468C16.3051 18.1023 16.2643 18.0654 16.2172 18.0389C16.17 18.0124 16.1176 17.997 16.0638 17.9936C16.01 17.9903 15.9562 17.9991 15.9062 18.0196C15.8562 18.0401 15.8114 18.0716 15.7749 18.1119C15.7058 18.2095 15.6722 18.3284 15.6795 18.4483C15.6869 18.5682 15.7349 18.6819 15.8154 18.7701L16.3364 18.1468ZM22.4661 26.4356C22.4975 26.4801 22.5382 26.5169 22.5854 26.5434C22.6325 26.5698 22.6849 26.5853 22.7387 26.5887C22.7925 26.592 22.8463 26.5831 22.8963 26.5627C22.9463 26.5423 22.9912 26.5108 23.0276 26.4705C23.0968 26.373 23.1306 26.2542 23.1233 26.1343C23.1161 26.0143 23.0682 25.9006 22.9878 25.8123L22.4661 26.4356Z" fill="#125BA8"/>
<path fill-rule="evenodd" clip-rule="evenodd" d="M16.6588 28.5782L16.3846 18.3769L15.5879 18.3185L15.8621 28.5198L16.6588 28.5782ZM16.3846 18.3769C16.3846 18.2602 16.3431 18.1474 16.2677 18.0593C16.1923 17.9712 16.0881 17.9136 15.9742 17.8972C15.9204 17.8953 15.8669 17.9052 15.8173 17.9261C15.7676 17.9471 15.723 17.9786 15.6863 18.0185C15.6497 18.0584 15.622 18.1059 15.605 18.1577C15.588 18.2094 15.5822 18.2643 15.5879 18.3185L16.3846 18.3769ZM15.8621 28.5198C15.862 28.6365 15.9035 28.7493 15.9789 28.8375C16.0544 28.9257 16.1586 28.9833 16.2725 28.9997C16.3263 29.0015 16.3797 28.9916 16.4294 28.9706C16.479 28.9497 16.5237 28.9182 16.5603 28.8782C16.5969 28.8383 16.6246 28.7908 16.6416 28.7391C16.6586 28.6873 16.6645 28.6325 16.6588 28.5782L15.8621 28.5198Z" fill="#04830A"/>
<path fill-rule="evenodd" clip-rule="evenodd" d="M15.1857 28.4651L14.9472 18.2553L14.1526 18.3922L14.3911 28.6019L15.1857 28.4651ZM14.9472 18.2553C14.9514 18.2008 14.9435 18.146 14.9241 18.095C14.9048 18.0439 14.8745 17.9979 14.8354 17.9603C14.7963 17.9226 14.7494 17.8943 14.6981 17.8774C14.6468 17.8605 14.5925 17.8554 14.5391 17.8625C14.4243 17.8921 14.3231 17.961 14.2527 18.0576C14.1823 18.1542 14.1469 18.2726 14.1526 18.3926L14.9472 18.2553ZM14.3907 28.6024C14.3865 28.6569 14.3944 28.7116 14.4138 28.7627C14.4331 28.8137 14.4634 28.8597 14.5025 28.8973C14.5416 28.935 14.5885 28.9633 14.6397 28.9802C14.6909 28.9972 14.7453 29.0023 14.7987 28.9952C14.9135 28.9656 15.0146 28.8966 15.0851 28.8C15.1555 28.7034 15.1909 28.5851 15.1853 28.4651L14.3907 28.6024Z" fill="#F0A631"/>
<path fill-rule="evenodd" clip-rule="evenodd" d="M8.58455 26.4565L14.8378 18.4631L14.2645 17.8988L8.01078 25.8922L8.58455 26.4565ZM14.8378 18.4631C14.9118 18.3737 14.9515 18.2602 14.9496 18.1434C14.9477 18.0267 14.9043 17.9146 14.8275 17.8277C14.7874 17.7913 14.7402 17.764 14.6889 17.7477C14.6376 17.7314 14.5834 17.7264 14.53 17.7331C14.4767 17.7399 14.4253 17.7581 14.3795 17.7867C14.3337 17.8153 14.2945 17.8535 14.2645 17.8988L14.8378 18.4631ZM8.01078 25.8922C7.93682 25.9816 7.89714 26.0951 7.89905 26.2118C7.90096 26.3285 7.94433 26.4405 8.02117 26.5274C8.06119 26.5638 8.10844 26.5911 8.15975 26.6075C8.21105 26.6238 8.26521 26.6288 8.31858 26.6221C8.37194 26.6153 8.42326 26.5971 8.46907 26.5685C8.51489 26.54 8.55413 26.5018 8.58415 26.4565L8.01078 25.8922Z" fill="#125BA8"/>
<path fill-rule="evenodd" clip-rule="evenodd" d="M7.52787 25.4089L13.8139 17.4323L13.1182 17.0191L6.83218 24.9959L7.52787 25.4089ZM13.8139 17.4323C13.8517 17.3932 13.8803 17.3461 13.8979 17.2944C13.9154 17.2427 13.9213 17.1877 13.9152 17.1334C13.9091 17.079 13.8911 17.0268 13.8626 16.9804C13.8341 16.934 13.7957 16.8946 13.7503 16.8652C13.6436 16.813 13.5224 16.7998 13.4072 16.8279C13.292 16.8559 13.19 16.9235 13.1182 17.0191L13.8139 17.4323ZM6.83218 24.9959C6.79445 25.0349 6.76579 25.082 6.74828 25.1338C6.73078 25.1855 6.72486 25.2405 6.73097 25.2948C6.73709 25.3492 6.75507 25.4014 6.78362 25.4478C6.81216 25.4942 6.85054 25.5335 6.89597 25.5629C7.00267 25.6151 7.12384 25.6282 7.23899 25.6001C7.35414 25.5721 7.45619 25.5045 7.52787 25.4089L6.83218 24.9959Z" fill="#04830A"/>
<path fill-rule="evenodd" clip-rule="evenodd" d="M3.74372 19.5651L13.5986 17.5198L13.5177 16.7136L3.66279 18.759L3.74372 19.5651ZM13.5986 17.5198C13.7119 17.4996 13.8142 17.4385 13.8867 17.3479C13.9592 17.2572 13.997 17.1431 13.9931 17.0264C13.9856 16.9724 13.9667 16.9207 13.9377 16.8747C13.9088 16.8288 13.8704 16.7896 13.8253 16.76C13.7802 16.7303 13.7293 16.7109 13.6761 16.7029C13.623 16.6949 13.5687 16.6985 13.517 16.7136L13.5986 17.5198ZM3.66212 18.759C3.5488 18.7793 3.4465 18.8403 3.37402 18.931C3.30153 19.0216 3.26375 19.1358 3.2676 19.2525C3.27517 19.3065 3.29406 19.3582 3.32302 19.4041C3.35197 19.4501 3.39031 19.4892 3.43544 19.5189C3.48057 19.5485 3.53144 19.568 3.58463 19.576C3.63781 19.5839 3.69206 19.5802 3.74372 19.5651L3.66212 18.759Z" fill="#F0A631"/>
<path fill-rule="evenodd" clip-rule="evenodd" d="M3.5981 18.0738L13.4673 16.0623L13.1961 15.2921L3.32686 17.3036L3.5981 18.0738ZM13.4673 16.0623C13.5209 16.0569 13.5727 16.0395 13.6188 16.0113C13.665 15.9831 13.7044 15.9448 13.7341 15.8992C13.7638 15.8536 13.7831 15.8019 13.7906 15.7478C13.7982 15.6936 13.7937 15.6385 13.7775 15.5863C13.7289 15.4768 13.6444 15.3876 13.5384 15.334C13.4323 15.2804 13.3113 15.2656 13.1958 15.2921L13.4673 16.0623ZM3.32686 17.3034C3.27325 17.3087 3.22148 17.3261 3.17533 17.3543C3.12918 17.3825 3.08982 17.4208 3.0601 17.4664C3.03038 17.512 3.01106 17.5637 3.00354 17.6179C2.99603 17.672 3.0005 17.7271 3.01665 17.7793C3.06534 17.8888 3.14983 17.9779 3.25584 18.0315C3.36184 18.0852 3.48284 18.1 3.59837 18.0735L3.32686 17.3034Z" fill="#125BA8"/>
<path fill-rule="evenodd" clip-rule="evenodd" d="M4.40139 11.1303L13.2465 15.99L13.6948 15.3195L4.84972 10.4598L4.40139 11.1303ZM13.2465 15.99C13.3461 16.0484 13.4632 16.0684 13.5762 16.0462C13.6891 16.024 13.7904 15.9612 13.8614 15.8693C13.8898 15.823 13.9081 15.7711 13.9151 15.717C13.922 15.6629 13.9174 15.6079 13.9017 15.5558C13.8859 15.5036 13.8592 15.4555 13.8235 15.4147C13.7879 15.3739 13.744 15.3414 13.6948 15.3192L13.2465 15.99ZM4.84972 10.4595C4.75008 10.4011 4.63302 10.3812 4.52005 10.4034C4.40709 10.4255 4.3058 10.4883 4.23481 10.5802C4.20638 10.6265 4.18808 10.6784 4.18113 10.7325C4.17418 10.7866 4.17876 10.8416 4.19455 10.8937C4.21034 10.9459 4.23697 10.994 4.27265 11.0348C4.30834 11.0756 4.35224 11.1082 4.40139 11.1303L4.84972 10.4595Z" fill="#04830A"/>
<path fill-rule="evenodd" clip-rule="evenodd" d="M5.23475 9.8927L14.0692 14.788L14.3493 14.0217L5.51557 9.12601L5.23475 9.8927ZM14.0692 14.788C14.1136 14.819 14.1643 14.8395 14.2176 14.848C14.2708 14.8565 14.3253 14.8529 14.377 14.8374C14.4287 14.8219 14.4763 14.7948 14.5164 14.7583C14.5565 14.7217 14.588 14.6765 14.6087 14.626C14.6408 14.5103 14.6325 14.387 14.5853 14.2768C14.538 14.1666 14.4547 14.0764 14.3495 14.0213L14.0692 14.788ZM5.51557 9.12601C5.47112 9.09506 5.42042 9.07457 5.36717 9.06603C5.31393 9.05749 5.25947 9.06112 5.20778 9.07664C5.15608 9.09216 5.10846 9.1192 5.06837 9.15576C5.02828 9.19233 4.99675 9.23751 4.97606 9.28802C4.94392 9.40367 4.95217 9.52706 4.99941 9.63726C5.04665 9.74745 5.12998 9.83769 5.23529 9.8927L5.51557 9.12601Z" fill="#F0A631"/>
<path fill-rule="evenodd" clip-rule="evenodd" d="M10.2497 5.09731L13.9464 14.5883L14.7152 14.3667L11.0185 4.87591L10.2497 5.09731ZM13.9464 14.5883C13.9857 14.698 14.0628 14.7896 14.1634 14.8463C14.264 14.903 14.3814 14.921 14.494 14.8968C14.5451 14.8799 14.592 14.852 14.6316 14.8151C14.6712 14.7782 14.7025 14.7331 14.7234 14.6828C14.7443 14.6326 14.7544 14.5784 14.7529 14.5238C14.7514 14.4693 14.7384 14.4157 14.7148 14.3667L13.9464 14.5883ZM11.0185 4.87591C10.9792 4.76618 10.9022 4.67454 10.8016 4.61784C10.701 4.56115 10.5836 4.54322 10.471 4.56735C10.4199 4.58429 10.373 4.61215 10.3334 4.64906C10.2939 4.68597 10.2625 4.73106 10.2416 4.78129C10.2207 4.83152 10.2106 4.88572 10.2121 4.94024C10.2135 4.99476 10.2265 5.04831 10.2501 5.09731L11.0185 4.87591Z" fill="#125BA8"/>
<path fill-rule="evenodd" clip-rule="evenodd" d="M11.6724 4.69257L15.3385 14.2039L16.0388 13.7992L12.3728 4.28794L11.6724 4.69257ZM15.3385 14.2039C15.353 14.2566 15.3788 14.3053 15.4142 14.3466C15.4496 14.3878 15.4936 14.4205 15.543 14.4423C15.5925 14.4641 15.6461 14.4745 15.6999 14.4726C15.7538 14.4707 15.8066 14.4567 15.8544 14.4315C15.9523 14.3638 16.0241 14.2639 16.0577 14.1487C16.0913 14.0334 16.0846 13.91 16.0388 13.7992L15.3385 14.2039ZM12.3728 4.28794C12.3584 4.23526 12.3325 4.18653 12.2971 4.14528C12.2617 4.10404 12.2177 4.07132 12.1683 4.04952C12.1189 4.02772 12.0653 4.01738 12.0114 4.01926C11.9575 4.02114 11.9048 4.03519 11.8569 4.06038C11.759 4.12802 11.6872 4.2279 11.6536 4.3431C11.62 4.45831 11.6266 4.58177 11.6724 4.69257L12.3728 4.28794Z" fill="#04830A"/>
<path fill-rule="evenodd" clip-rule="evenodd" d="M18.5522 4.28946L15.3707 13.9706L16.0997 14.302L19.2811 4.62087L18.5522 4.28946ZM15.3707 13.9706C15.3313 14.0803 15.3323 14.2008 15.3734 14.3098C15.4146 14.4188 15.4931 14.5091 15.5946 14.5641C15.6445 14.5844 15.6981 14.5937 15.7518 14.5912C15.8055 14.5887 15.8581 14.5746 15.906 14.5498C15.9539 14.5249 15.9959 14.49 16.0293 14.4472C16.0628 14.4045 16.0868 14.355 16.0997 14.302L15.3707 13.9706ZM19.2811 4.62087C19.3205 4.5112 19.3195 4.39079 19.2784 4.28178C19.2372 4.17276 19.1587 4.08249 19.0572 4.02755C19.0073 4.0072 18.9537 3.99793 18.9 4.00039C18.8463 4.00284 18.7937 4.01696 18.7459 4.04178C18.698 4.06661 18.6559 4.10157 18.6225 4.14429C18.5891 4.18702 18.5651 4.23652 18.5522 4.28946L19.2811 4.62087Z" fill="#F0A631"/>
<path d="M39.932 8.008H44.328V28H39.932V8.008ZM53.3698 20.216L46.0338 8.008H50.9618L55.6378 15.904L60.2858 8.008H65.1858L57.7658 20.328V28H53.3698V20.216ZM80.1936 14.728C80.1189 14.224 79.9509 13.7667 79.6896 13.356C79.4283 12.9267 79.1016 12.5533 78.7096 12.236C78.3176 11.9187 77.8696 11.676 77.3656 11.508C76.8803 11.3213 76.3669 11.228 75.8256 11.228C74.8363 11.228 73.9963 11.424 73.3056 11.816C72.6149 12.1893 72.0549 12.7027 71.6256 13.356C71.1963 13.9907 70.8789 14.7187 70.6736 15.54C70.4869 16.3613 70.3936 17.2107 70.3936 18.088C70.3936 18.928 70.4869 19.7493 70.6736 20.552C70.8789 21.336 71.1963 22.0453 71.6256 22.68C72.0549 23.3147 72.6149 23.828 73.3056 24.22C73.9963 24.5933 74.8363 24.78 75.8256 24.78C77.1696 24.78 78.2149 24.3693 78.9616 23.548C79.7269 22.7267 80.1936 21.644 80.3616 20.3H84.6176C84.5056 21.5507 84.2163 22.68 83.7496 23.688C83.2829 24.696 82.6669 25.5547 81.9016 26.264C81.1363 26.9733 80.2403 27.5147 79.2136 27.888C78.1869 28.2613 77.0576 28.448 75.8256 28.448C74.2949 28.448 72.9136 28.1867 71.6816 27.664C70.4683 27.1227 69.4416 26.3853 68.6016 25.452C67.7616 24.5187 67.1176 23.4267 66.6696 22.176C66.2216 20.9067 65.9976 19.544 65.9976 18.088C65.9976 16.5947 66.2216 15.2133 66.6696 13.944C67.1176 12.656 67.7616 11.536 68.6016 10.584C69.4416 9.632 70.4683 8.88533 71.6816 8.344C72.9136 7.80267 74.2949 7.532 75.8256 7.532C76.9269 7.532 77.9629 7.69067 78.9336 8.008C79.9229 8.32533 80.8003 8.792 81.5656 9.408C82.3496 10.0053 82.9936 10.752 83.4976 11.648C84.0016 12.544 84.3189 13.5707 84.4496 14.728H80.1936ZM91.1475 18.088C91.1475 18.928 91.2408 19.7493 91.4275 20.552C91.6328 21.336 91.9502 22.0453 92.3795 22.68C92.8088 23.3147 93.3688 23.828 94.0595 24.22C94.7502 24.5933 95.5902 24.78 96.5795 24.78C97.5688 24.78 98.4088 24.5933 99.0995 24.22C99.7902 23.828 100.35 23.3147 100.78 22.68C101.209 22.0453 101.517 21.336 101.704 20.552C101.909 19.7493 102.012 18.928 102.012 18.088C102.012 17.2107 101.909 16.3613 101.704 15.54C101.517 14.7187 101.209 13.9907 100.78 13.356C100.35 12.7027 99.7902 12.1893 99.0995 11.816C98.4088 11.424 97.5688 11.228 96.5795 11.228C95.5902 11.228 94.7502 11.424 94.0595 11.816C93.3688 12.1893 92.8088 12.7027 92.3795 13.356C91.9502 13.9907 91.6328 14.7187 91.4275 15.54C91.2408 16.3613 91.1475 17.2107 91.1475 18.088ZM86.7515 18.088C86.7515 16.5947 86.9755 15.2133 87.4235 13.944C87.8715 12.656 88.5155 11.536 89.3555 10.584C90.1955 9.632 91.2222 8.88533 92.4355 8.344C93.6675 7.80267 95.0488 7.532 96.5795 7.532C98.1288 7.532 99.5102 7.80267 100.724 8.344C101.937 8.88533 102.964 9.632 103.804 10.584C104.644 11.536 105.288 12.656 105.736 13.944C106.184 15.2133 106.408 16.5947 106.408 18.088C106.408 19.544 106.184 20.9067 105.736 22.176C105.288 23.4267 104.644 24.5187 103.804 25.452C102.964 26.3853 101.937 27.1227 100.724 27.664C99.5102 28.1867 98.1288 28.448 96.5795 28.448C95.0488 28.448 93.6675 28.1867 92.4355 27.664C91.2222 27.1227 90.1955 26.3853 89.3555 25.452C88.5155 24.5187 87.8715 23.4267 87.4235 22.176C86.9755 20.9067 86.7515 19.544 86.7515 18.088ZM109.412 8.008H113.78L122.124 21.42H122.18V8.008H126.296V28H121.9L113.584 14.616H113.528V28H109.412V8.008ZM130.166 8.008H134.534L142.878 21.42H142.934V8.008H147.05V28H142.654L134.338 14.616H134.282V28H130.166V8.008ZM150.92 8.008H165.872V11.704H155.316V15.988H165.004V19.404H155.316V24.304H166.096V28H150.92V8.008ZM182.405 14.728C182.33 14.224 182.162 13.7667 181.901 13.356C181.639 12.9267 181.313 12.5533 180.921 12.236C180.529 11.9187 180.081 11.676 179.577 11.508C179.091 11.3213 178.578 11.228 178.037 11.228C177.047 11.228 176.207 11.424 175.517 11.816C174.826 12.1893 174.266 12.7027 173.837 13.356C173.407 13.9907 173.09 14.7187 172.885 15.54C172.698 16.3613 172.605 17.2107 172.605 18.088C172.605 18.928 172.698 19.7493 172.885 20.552C173.09 21.336 173.407 22.0453 173.837 22.68C174.266 23.3147 174.826 23.828 175.517 24.22C176.207 24.5933 177.047 24.78 178.037 24.78C179.381 24.78 180.426 24.3693 181.173 23.548C181.938 22.7267 182.405 21.644 182.573 20.3H186.829C186.717 21.5507 186.427 22.68 185.961 23.688C185.494 24.696 184.878 25.5547 184.113 26.264C183.347 26.9733 182.451 27.5147 181.425 27.888C180.398 28.2613 179.269 28.448 178.037 28.448C176.506 28.448 175.125 28.1867 173.893 27.664C172.679 27.1227 171.653 26.3853 170.813 25.452C169.973 24.5187 169.329 23.4267 168.881 22.176C168.433 20.9067 168.209 19.544 168.209 18.088C168.209 16.5947 168.433 15.2133 168.881 13.944C169.329 12.656 169.973 11.536 170.813 10.584C171.653 9.632 172.679 8.88533 173.893 8.344C175.125 7.80267 176.506 7.532 178.037 7.532C179.138 7.532 180.174 7.69067 181.145 8.008C182.134 8.32533 183.011 8.792 183.777 9.408C184.561 10.0053 185.205 10.752 185.709 11.648C186.213 12.544 186.53 13.5707 186.661 14.728H182.405ZM194.254 11.704H188.262V8.008H204.642V11.704H198.65V28H194.254V11.704Z" fill="#125BA8"/>
<path d="M206.291 23.2012H207.064C207.443 23.2012 207.756 23.1387 208.002 23.0137C208.252 22.8848 208.438 22.7109 208.559 22.4922C208.684 22.2695 208.746 22.0195 208.746 21.7422C208.746 21.4141 208.691 21.1387 208.582 20.916C208.473 20.6934 208.309 20.5254 208.09 20.4121C207.871 20.2988 207.594 20.2422 207.258 20.2422C206.953 20.2422 206.684 20.3027 206.449 20.4238C206.219 20.541 206.037 20.709 205.904 20.9277C205.775 21.1465 205.711 21.4043 205.711 21.7012H204.627C204.627 21.2676 204.736 20.873 204.955 20.5176C205.174 20.1621 205.48 19.8789 205.875 19.668C206.273 19.457 206.734 19.3516 207.258 19.3516C207.773 19.3516 208.225 19.4434 208.611 19.627C208.998 19.8066 209.299 20.0762 209.514 20.4355C209.729 20.791 209.836 21.2344 209.836 21.7656C209.836 21.9805 209.785 22.2109 209.684 22.457C209.586 22.6992 209.432 22.9258 209.221 23.1367C209.014 23.3477 208.744 23.5215 208.412 23.6582C208.08 23.791 207.682 23.8574 207.217 23.8574H206.291V23.2012ZM206.291 24.0918V23.4414H207.217C207.76 23.4414 208.209 23.5059 208.564 23.6348C208.92 23.7637 209.199 23.9355 209.402 24.1504C209.609 24.3652 209.754 24.6016 209.836 24.8594C209.922 25.1133 209.965 25.3672 209.965 25.6211C209.965 26.0195 209.896 26.373 209.76 26.6816C209.627 26.9902 209.438 27.252 209.191 27.4668C208.949 27.6816 208.664 27.8438 208.336 27.9531C208.008 28.0625 207.65 28.1172 207.264 28.1172C206.893 28.1172 206.543 28.0645 206.215 27.959C205.891 27.8535 205.604 27.7012 205.354 27.502C205.104 27.2988 204.908 27.0508 204.768 26.7578C204.627 26.4609 204.557 26.123 204.557 25.7441H205.641C205.641 26.041 205.705 26.3008 205.834 26.5234C205.967 26.7461 206.154 26.9199 206.396 27.0449C206.643 27.166 206.932 27.2266 207.264 27.2266C207.596 27.2266 207.881 27.1699 208.119 27.0566C208.361 26.9395 208.547 26.7637 208.676 26.5293C208.809 26.2949 208.875 26 208.875 25.6445C208.875 25.2891 208.801 24.998 208.652 24.7715C208.504 24.541 208.293 24.3711 208.02 24.2617C207.75 24.1484 207.432 24.0918 207.064 24.0918H206.291ZM211.594 27.4258C211.594 27.2422 211.65 27.0879 211.764 26.9629C211.881 26.834 212.049 26.7695 212.268 26.7695C212.486 26.7695 212.652 26.834 212.766 26.9629C212.883 27.0879 212.941 27.2422 212.941 27.4258C212.941 27.6055 212.883 27.7578 212.766 27.8828C212.652 28.0078 212.486 28.0703 212.268 28.0703C212.049 28.0703 211.881 28.0078 211.764 27.8828C211.65 27.7578 211.594 27.6055 211.594 27.4258ZM219.979 23.0547V24.3555C219.979 25.0547 219.916 25.6445 219.791 26.125C219.666 26.6055 219.486 26.9922 219.252 27.2852C219.018 27.5781 218.734 27.791 218.402 27.9238C218.074 28.0527 217.703 28.1172 217.289 28.1172C216.961 28.1172 216.658 28.0762 216.381 27.9941C216.104 27.9121 215.854 27.7812 215.631 27.6016C215.412 27.418 215.225 27.1797 215.068 26.8867C214.912 26.5938 214.793 26.2383 214.711 25.8203C214.629 25.4023 214.588 24.9141 214.588 24.3555V23.0547C214.588 22.3555 214.65 21.7695 214.775 21.2969C214.904 20.8242 215.086 20.4453 215.32 20.1602C215.555 19.8711 215.836 19.6641 216.164 19.5391C216.496 19.4141 216.867 19.3516 217.277 19.3516C217.609 19.3516 217.914 19.3926 218.191 19.4746C218.473 19.5527 218.723 19.6797 218.941 19.8555C219.16 20.0273 219.346 20.2578 219.498 20.5469C219.654 20.832 219.773 21.1816 219.855 21.5957C219.938 22.0098 219.979 22.4961 219.979 23.0547ZM218.889 24.5312V22.873C218.889 22.4902 218.865 22.1543 218.818 21.8652C218.775 21.5723 218.711 21.3223 218.625 21.1152C218.539 20.9082 218.43 20.7402 218.297 20.6113C218.168 20.4824 218.018 20.3887 217.846 20.3301C217.678 20.2676 217.488 20.2363 217.277 20.2363C217.02 20.2363 216.791 20.2852 216.592 20.3828C216.393 20.4766 216.225 20.627 216.088 20.834C215.955 21.041 215.854 21.3125 215.783 21.6484C215.713 21.9844 215.678 22.3926 215.678 22.873V24.5312C215.678 24.9141 215.699 25.252 215.742 25.5449C215.789 25.8379 215.857 26.0918 215.947 26.3066C216.037 26.5176 216.146 26.6914 216.275 26.8281C216.404 26.9648 216.553 27.0664 216.721 27.1328C216.893 27.1953 217.082 27.2266 217.289 27.2266C217.555 27.2266 217.787 27.1758 217.986 27.0742C218.186 26.9727 218.352 26.8145 218.484 26.5996C218.621 26.3809 218.723 26.1016 218.789 25.7617C218.855 25.418 218.889 25.0078 218.889 24.5312Z" fill="#125BA8"/>
</svg>
