<svg version="1.0" xmlns="http://www.w3.org/2000/svg" width="100" height="100" viewBox="0 0 75 75"><path d="M36.15 14.625c-2.062 0.825 -2.737 4.087 -1.162 5.55 1.2 1.125 2.587 1.35 3.975 0.637 1.425 -0.712 2.062 -2.137 1.725 -3.825 -0.337 -1.837 -2.775 -3.112 -4.537 -2.362M10.237 22.012c-1.275 0.262 -2.362 1.875 -2.362 3.487 0 1.125 0.225 1.65 1.162 2.4 1.387 1.162 2.362 1.237 3.975 0.225 2.325 -1.387 1.875 -5.062 -0.675 -5.962 -0.675 -0.225 -1.2 -0.375 -1.237 -0.375a3.75 3.75 0 0 1 -0.862 0.225m52.162 0.262c-2.362 1.05 -2.625 4.5 -0.412 5.887 2.287 1.425 5.137 -0.075 5.137 -2.7 0 -2.587 -2.362 -4.162 -4.725 -3.187m-31.95 1.612c-1.8 0.9 -2.325 2.175 -2.325 5.925V33h1.275c1.275 0 1.312 -0.037 1.425 -1.8 0.075 -0.975 0.3 -1.762 0.487 -1.762 0.225 0 0.412 0.787 0.487 1.762l0.112 1.8H42.75v-1.687c0 -0.937 0.15 -1.687 0.3 -1.687s1.05 0.75 1.95 1.687c1.35 1.387 1.912 1.687 3 1.687 1.2 0 1.687 -0.337 4.05 -2.775 2.737 -2.812 3.075 -3.45 2.25 -4.275s-1.575 -0.45 -3.937 1.875l-2.362 2.325 -3.112 -3.037c-1.687 -1.65 -3.45 -3.225 -3.9 -3.45 -1.312 -0.675 -9.075 -0.525 -10.537 0.225M19.687 30.375c-0.112 0.187 -0.075 0.375 0.15 0.375 0.187 0 0.487 -0.187 0.6 -0.375 0.112 -0.225 0.075 -0.375 -0.15 -0.375 -0.187 0 -0.487 0.15 -0.6 0.375m-11.925 0.787c-1.35 1.05 -1.65 2.55 -1.912 9.6 -0.225 6 -0.187 6.525 1.012 7.275 0.037 0.037 2.25 0.15 4.95 0.3l4.875 0.225 2.1 5.55c1.162 3.037 2.325 5.775 2.587 6.075 0.937 1.125 3.75 0.337 3.75 -1.05 0 -0.225 -1.312 -3.862 -2.887 -8.062C19.012 42.637 19.125 42.75 15.75 42.75c-1.012 0 -1.912 -0.15 -2.025 -0.3 -0.3 -0.525 -0.75 -6.45 -0.45 -6.45 0.112 0 1.162 0.525 2.25 1.125 1.912 1.087 2.212 1.162 5.512 1.05 3.375 -0.112 3.525 -0.15 3.637 -0.975 0.225 -1.537 -0.525 -1.95 -3.6 -1.95h-2.812l-2.662 -1.987c-1.462 -1.125 -3.037 -2.212 -3.487 -2.437 -1.275 -0.675 -3.262 -0.525 -4.35 0.337m54.337 0.15c-0.75 0.525 -2.25 1.612 -3.337 2.4 -1.875 1.425 -2.137 1.5 -4.912 1.612 -2.325 0.075 -3.037 0.262 -3.375 0.75 -0.3 0.487 -0.3 0.862 0 1.312 0.337 0.562 1.05 0.712 3.712 0.787 3.075 0.112 3.375 0.037 5.325 -1.05 1.125 -0.637 2.137 -1.087 2.25 -0.975s0.075 1.612 -0.112 3.3l-0.337 3.112 -2.55 0.225c-1.387 0.112 -2.7 0.375 -2.887 0.562 -0.375 0.412 -6 15.15 -6 15.787 0 1.35 2.812 2.175 3.712 1.087 0.225 -0.3 1.387 -3.037 2.587 -6.075l2.137 -5.587 4.875 -0.225c2.7 -0.15 4.912 -0.262 4.95 -0.3 1.162 -0.75 1.275 -1.312 1.05 -6.375 -0.337 -8.212 -0.487 -9 -1.687 -10.237 -1.387 -1.387 -3.45 -1.425 -5.4 -0.112m-41.287 0.15c-0.337 0.562 1.237 3.037 1.95 3.037 0.487 0 0.487 -0.15 -0.075 -1.05 -1.462 -2.212 -1.612 -2.4 -1.875 -1.987"/><path d="M19.125 33.712c-0.375 0.712 -0.3 0.787 0.562 0.787 0.712 0 0.975 -0.187 0.862 -0.637 -0.187 -0.937 -0.937 -1.012 -1.425 -0.15m34.95 0.037c0.262 0.412 0.862 0.75 1.35 0.75 0.75 0 0.787 -0.112 0.45 -0.75 -0.225 -0.45 -0.787 -0.75 -1.312 -0.75 -0.862 0 -0.9 0.075 -0.487 0.75M0.375 35.325c0 0.675 0.262 3.337 0.562 5.925 0.3 2.625 0.562 7.912 0.562 12.075V60.75h2.25v-6.487c0 -5.625 -1.05 -18 -1.687 -19.687C1.987 34.35 1.537 34.125 1.125 34.125c-0.6 0 -0.75 0.225 -0.75 1.2m72.562 -0.375c-0.787 3.562 -1.687 13.687 -1.687 19.312V60.75h2.25v-7.125c0 -6 0.562 -14.175 1.312 -18.487 0.15 -0.862 0.037 -1.012 -0.75 -1.012 -0.637 0 -0.975 0.262 -1.125 0.825M15.375 39.337c-0.187 0.412 -0.375 1.162 -0.375 1.687v0.975h45v-1.05c0 -1.425 -0.787 -2.437 -1.612 -2.1 -0.45 0.15 -0.6 0.487 -0.45 0.937 0.225 0.675 -0.375 0.712 -20.437 0.712 -20.287 0 -20.7 0 -20.512 -0.712 0.112 -0.45 -0.037 -0.825 -0.375 -0.937 -0.787 -0.3 -0.787 -0.3 -1.237 0.487m17.1 4.387c-0.487 0.487 -0.6 1.65 -0.6 6.712 0 6.6 0.187 7.312 2.025 7.312s2.1 -0.862 2.1 -7.387c0 -5.325 -0.075 -6.075 -0.675 -6.6 -0.862 -0.787 -2.1 -0.825 -2.85 -0.037m6.787 0.075c-0.525 0.6 -0.637 1.65 -0.637 6.712 0 5.325 0.075 6.075 0.675 6.6 0.862 0.787 2.1 0.825 2.85 0.037 0.487 -0.487 0.6 -1.65 0.6 -6.9 0 -5.887 -0.037 -6.375 -0.712 -6.75 -1.087 -0.562 -2.1 -0.45 -2.775 0.3"/></svg>