<svg width="12" height="12" viewBox="0 0 12 12" fill="none" xmlns="http://www.w3.org/2000/svg">
<path d="M9.33333 7.66667C8.41286 7.66667 7.66667 8.41286 7.66667 9.33333C7.66667 10.2538 8.41286 11 9.33333 11C10.2538 11 11 10.2538 11 9.33333C11 8.41286 10.2538 7.66667 9.33333 7.66667ZM9.33333 7.66667V3.77778C9.33333 3.48309 9.21627 3.20048 9.0079 2.9921C8.79952 2.78373 8.51691 2.66667 8.22222 2.66667H6.55556M2.66667 4.33333C3.58714 4.33333 4.33333 3.58714 4.33333 2.66667C4.33333 1.74619 3.58714 1 2.66667 1C1.74619 1 1 1.74619 1 2.66667C1 3.58714 1.74619 4.33333 2.66667 4.33333ZM2.66667 4.33333V11" stroke="#48BC69" stroke-linecap="round" stroke-linejoin="round"/>
</svg>
