<svg width="22" height="22" viewBox="0 0 22 22" fill="none" xmlns="http://www.w3.org/2000/svg">
<path d="M17.0496 1C21.5406 5.49103 21.5406 12.7724 17.0496 17.2635C12.7488 21.5643 5.8889 21.7464 1.37132 17.8099C1.17431 17.6382 1.0758 17.5523 1.03133 17.435C0.993918 17.3363 0.98973 17.2142 1.02028 17.1131C1.0566 16.993 1.15502 16.8946 1.35185 16.6978L3.5671 14.4825M16.4179 9.13173C16.4179 13.2739 13.06 16.6317 8.91789 16.6317C4.77575 16.6317 1.41789 13.2739 1.41789 9.13173C1.41789 4.98959 4.77575 1.63173 8.91789 1.63173C13.06 1.63173 16.4179 4.98959 16.4179 9.13173Z" stroke="#53698A" stroke-width="2" stroke-linecap="round" stroke-linejoin="round"/>
</svg>
