<svg width="21" height="22" viewBox="0 0 21 22" fill="none" xmlns="http://www.w3.org/2000/svg">
<path d="M4.07281 15.5282C4.07281 15.8795 4.07281 16.0551 4.08886 16.2078C4.2221 17.4756 5.16121 18.5228 6.43075 18.8193C6.58366 18.855 6.76204 18.8782 7.11867 18.9247L13.8706 19.8036C15.7926 20.0538 16.7536 20.1789 17.4994 19.8893C18.1543 19.6351 18.6997 19.1689 19.0444 18.5688C19.4369 17.8852 19.4369 16.9387 19.4369 15.0457V6.01064C19.4369 4.1176 19.4369 3.17108 19.0444 2.48755C18.6997 1.88743 18.1543 1.4212 17.4994 1.167C16.7536 0.877457 15.7926 1.00255 13.8706 1.25274L7.11867 2.13167C6.762 2.1781 6.58366 2.20131 6.43075 2.23703C5.16121 2.53352 4.2221 3.58073 4.08886 4.8485C4.07281 5.0012 4.07281 5.17686 4.07281 5.52816M10.2184 6.52816L14.3155 10.5282M14.3155 10.5282L10.2184 14.5282M14.3155 10.5282H1" stroke="#306BFF" stroke-width="2" stroke-linecap="round" stroke-linejoin="round"/>
</svg>
